<?xml version="1.0" encoding="utf-8"?>
<!-- Generator: Adobe Illustrator 15.0.0, SVG Export Plug-In . SVG Version: 6.00 Build 0)  -->
<!DOCTYPE svg PUBLIC "-//W3C//DTD SVG 1.1//EN" "http://www.w3.org/Graphics/SVG/1.1/DTD/svg11.dtd">
<svg version="1.1" id="Слой_1" xmlns="http://www.w3.org/2000/svg" xmlns:xlink="http://www.w3.org/1999/xlink" x="0px" y="0px"
	 width="73.333px" height="51.234px" viewBox="0 0 73.333 51.234" enable-background="new 0 0 73.333 51.234" xml:space="preserve">
<g>
	<path fill="#3199BC" d="M369.636-270.255c-0.007,0-0.01,0-0.016,0c-1.289,0.003-2.496,0.51-3.406,1.425
		c-0.906,0.915-1.406,2.126-1.399,3.413c0.006,2.652,2.17,4.81,4.821,4.81c1.292-0.001,2.502-0.504,3.415-1.417
		c0.91-0.912,1.412-2.125,1.409-3.414v-0.006C374.455-268.101,372.291-270.255,369.636-270.255z M373.652-265.443L373.652-265.443
		L373.652-265.443L373.652-265.443z"/>
	<path fill="#3199BC" d="M389.68-270.255c-0.007,0-0.01,0-0.017,0c-2.66,0.01-4.814,2.18-4.809,4.837
		c0.004,1.289,0.509,2.499,1.422,3.407c0.91,0.905,2.117,1.403,3.412,1.403c0.004,0,0.01,0,0.013,0
		c2.651-0.016,4.803-2.185,4.8-4.837c-0.004-1.29-0.509-2.498-1.422-3.408C392.167-269.758,390.962-270.255,389.68-270.255z"/>
	<path fill="#3199BC" d="M397.911-303.354c-0.143-0.022-0.288-0.031-0.434-0.031h-34.852l-1.087-5.735
		c-0.537-2.881-3.052-4.973-5.984-4.975h-5.279c-1.535,0-2.786,1.251-2.786,2.789s1.251,2.788,2.786,2.788h5.292
		c0.003,0,0.007,0,0.01,0c0.246,0,0.458,0.174,0.502,0.418l1.498,7.864c0.013,0.122,0.038,0.245,0.054,0.291l4.224,22.241
		c0.253,1.313,1.403,2.265,2.739,2.265h0.004l28.849-0.003c0.079,0.006,0.158,0.011,0.225,0.011s0.12-0.004,0.151-0.011
		c0.136,0.009,0.278,0.011,0.348,0.003c1.432-0.021,2.581-1.009,2.786-2.379l3.302-22.372
		C400.482-301.711,399.426-303.131,397.911-303.354z M394.251-297.774l-2.474,16.792h-24.903l-3.185-16.792H394.251z"/>
</g>
<g>
	<path fill="#3199BC" d="M281.59-259.333h-1.664c-1.715,0-3.063-1.348-3.063-3.063v-17.639c0-1.715,1.348-3.062,3.063-3.062h1.664
		c1.715,0,3.063,1.347,3.063,3.062v17.639C284.653-260.681,283.244-259.333,281.59-259.333z"/>
	<path fill="#3199BC" d="M299.525-259.333h-1.664c-1.715,0-3.063-1.348-3.063-3.063v-48.875c0-1.715,1.348-3.063,3.063-3.063h1.664
		c1.715,0,3.063,1.347,3.063,3.063v48.875C302.587-260.681,301.178-259.333,299.525-259.333z"/>
	<path fill="#3199BC" d="M317.459-259.333h-1.664c-1.715,0-3.063-1.348-3.063-3.063v-36.013c0-1.715,1.348-3.063,3.063-3.063h1.664
		c1.715,0,3.063,1.348,3.063,3.063v36.013C320.522-260.681,319.174-259.333,317.459-259.333z"/>
</g>
<g>
	<path fill="#2C98BB" d="M60.011-255.171c6.078-7.829,9.383-17.4,9.383-27.388c0-24.694-20.091-44.785-44.785-44.785
		c-24.695,0-44.785,20.09-44.785,44.785c0,10.264,3.463,20.04,9.833,27.967l34.952,35.335l31.509-31.509 M47.258-260.29
		l-22.649,22.648l-22.63-22.629c-5.904-5.994-9.155-13.909-9.155-22.288c0-17.526,14.259-31.785,31.785-31.785
		s31.785,14.258,31.785,31.785C56.394-274.176,53.14-266.258,47.258-260.29z"/>
	<circle fill="#2C98BB" cx="24.609" cy="-282.736" r="13.376"/>
</g>
<g>
	<path fill="#2C98BB" d="M155.266-296.933c-7.365,0-13.399,6.035-13.399,13.4c0,7.366,6.034,13.4,13.399,13.4
		c7.366,0,13.4-6.035,13.4-13.4C168.667-290.898,162.632-296.933,155.266-296.933z"/>
	<path fill="#2C98BB" d="M154.667-328.333c-29.776,0-54,24.224-54,54s24.224,54,54,54c29.775,0,54-24.224,54-54
		S184.442-328.333,154.667-328.333z M186.024-247.958c-6.288-10.467-17.741-17.475-30.758-17.475
		c-13.449,0-25.065,7.378-31.317,18.213c-6.392-7.233-10.282-16.725-10.282-27.113c0-22.607,18.393-41,41-41s41,18.393,41,41
		C195.667-264.295,192.035-255.093,186.024-247.958z"/>
</g>
<g>
	<path fill="#3199BC" d="M-12.048-84.602l37.688,21.757c0.667,0.385,1.5-0.097,1.5-0.866v-38.901c0-0.357-0.19-0.688-0.5-0.866
		l-37.688-21.76c-0.667-0.385-1.5,0.096-1.5,0.866v38.904C-12.548-85.11-12.358-84.78-12.048-84.602z"/>
	<path fill="#3199BC" d="M45.032-117.333L7.345-139.097c-0.31-0.179-0.691-0.179-1,0l-15.589,9.005
		c-0.667,0.385-0.667,1.347,0,1.732l37.688,21.756c0.31,0.179,0.69,0.179,1,0l15.589-8.999
		C45.699-115.986,45.699-116.948,45.032-117.333z"/>
	<path fill="#3199BC" d="M50.64-118.838l16.491-9.521c0.667-0.385,0.667-1.347,0-1.732l-37.688-21.763c-0.31-0.179-0.691-0.179-1,0
		l-16.491,9.521c-0.667,0.385-0.667,1.347,0,1.732l37.688,21.763C49.95-118.659,50.331-118.659,50.64-118.838z"/>
	<path fill="#3199BC" d="M68.935-125.238l-37.688,21.76c-0.31,0.179-0.5,0.509-0.5,0.866v38.901c0,0.77,0.833,1.251,1.5,0.866
		l37.688-21.757c0.31-0.179,0.5-0.509,0.5-0.866v-38.904C70.435-125.142,69.602-125.623,68.935-125.238z"/>
</g>
<g>
	<g>
		<path fill="#3199BC" d="M182.467-150.768H123.02c-2.872,0-5.199,2.328-5.199,5.2v43.556l6.802-4.067l0.646-14.74
			c0.034-3.414,2.823-6.182,6.246-6.182h42.575c3.423,0,6.211,2.768,6.245,6.182l0.646,14.749l6.688,4.048v-43.545
			C187.667-148.44,185.339-150.768,182.467-150.768z"/>
		<path fill="#3199BC" d="M178.519-104.61l-0.705-16.147c0-2.055-1.668-3.722-3.725-3.722h-42.576c-2.057,0-3.723,1.666-3.723,3.722
			l-0.707,16.147l0,0l-9.205,5.5v22.926h3.894v7.394c0,3.133,2.539,5.674,5.674,5.674s5.674-2.541,5.674-5.674v-7.394h39.245v7.394
			c0,3.133,2.54,5.674,5.674,5.674s5.674-2.541,5.674-5.674v-7.394h3.894v-22.926L178.519-104.61L178.519-104.61z M127.468-86.5
			c-2.626,0-4.757-2.131-4.757-4.757c0-2.629,2.129-4.758,4.757-4.758c2.628,0,4.758,2.128,4.758,4.758
			C132.226-88.631,130.096-86.5,127.468-86.5z M168.963-83.979h-32.439v-9.36c0-2.871,2.328-5.199,5.199-5.199h22.042
			c2.871,0,5.199,2.328,5.199,5.199L168.963-83.979L168.963-83.979z M130.563-104.61l0.917-13.908c0-1.437,1.164-2.6,2.6-2.6h37.327
			c1.437,0,2.6,1.163,2.6,2.6l0.916,13.908H130.563z M182.777-91.257c0,2.625-2.13,4.757-4.758,4.757
			c-2.627,0-4.756-2.131-4.756-4.757c0-2.629,2.129-4.758,4.756-4.758C180.646-96.014,182.777-93.886,182.777-91.257z"/>
	</g>
</g>
<g>
	<path fill="#3199BC" d="M275.167-142.443c-8.012,0-14.5,6.492-14.5,14.5c0,0.036,0.011,0.065,0.011,0.098
		c3.31-4.433,8.544-7.348,14.489-7.348s11.187,2.915,14.489,7.348c0-0.033,0.011-0.062,0.011-0.098
		C289.667-135.951,283.178-142.443,275.167-142.443z"/>
	<circle fill="#3199BC" cx="275.167" cy="-117.068" r="14.5"/>
	<path fill="#3199BC" d="M260.667-98.942c-5.394,0-10.049,2.979-12.546,7.354c5.868,8.679,15.801,14.395,27.046,14.395
		c1.936,0,3.817-0.228,5.658-0.551c-0.13-1.011-0.221-2.03-0.221-3.074c0-0.866,0.055-1.722,0.145-2.559
		c0.033-0.275,0.084-0.54,0.124-0.813c0.079-0.562,0.166-1.124,0.286-1.675c0.068-0.305,0.156-0.605,0.231-0.906
		c0.131-0.504,0.272-1.004,0.432-1.493c0.102-0.305,0.218-0.602,0.33-0.899c0.182-0.471,0.373-0.938,0.58-1.398
		c0.134-0.29,0.269-0.573,0.409-0.855c0.229-0.453,0.476-0.899,0.736-1.338c0.152-0.262,0.305-0.522,0.468-0.772
		c0.286-0.446,0.595-0.877,0.909-1.302c0.167-0.221,0.33-0.449,0.501-0.666c0.362-0.453,0.75-0.889,1.146-1.316
		c0.148-0.163,0.29-0.334,0.445-0.493c0.529-0.54,1.092-1.059,1.672-1.544c0.032-0.025,0.062-0.059,0.09-0.087h-28.441V-98.942z"/>
	<path fill="#3199BC" d="M275.167-66.318c3.313,0,6.528-0.402,9.628-1.105c-1.417-2.041-2.509-4.307-3.223-6.742l-0.004-0.004
		c-2.08,0.377-4.216,0.602-6.401,0.602c-19.988,0-36.25-16.262-36.25-36.25c0-19.988,16.262-36.25,36.25-36.25
		s36.25,16.262,36.25,36.25c0,2.189-0.229,4.321-0.602,6.405c0,0,0,0,0.007,0.003c2.429,0.718,4.702,1.809,6.739,3.223
		c0.703-3.106,1.105-6.318,1.105-9.631c0-24.023-19.478-43.5-43.5-43.5c-24.023,0-43.5,19.477-43.5,43.5
		S251.143-66.318,275.167-66.318z"/>
	<polygon fill="#3199BC" points="318.264,-87.227 313.138,-92.353 300.321,-79.535 295.195,-84.66 290.069,-79.535 300.321,-69.283 
			"/>
</g>
<g>
	<path fill="#2C98BB" d="M145.917,35.22c2.79-3.594,4.307-7.987,4.307-12.571c0-11.336-9.222-20.558-20.558-20.558
		s-20.558,9.222-20.558,20.558c0,4.711,1.59,9.198,4.514,12.837l16.043,16.22l14.463-14.463 M140.063,32.87l-10.396,10.396
		l-10.388-10.388c-2.71-2.751-4.203-6.385-4.203-10.23c0-8.046,6.545-14.591,14.59-14.591s14.59,6.545,14.59,14.591
		C144.257,26.496,142.763,30.131,140.063,32.87z"/>
	<circle fill="#2C98BB" cx="129.667" cy="22.566" r="6.14"/>
</g>
<g>
	<path fill="#2C98BB" d="M209.976,31.997c7.741,0,13.983-6.472,13.606-14.294c-0.353-7.322-6.665-12.95-13.996-12.95h-12.958
		c-0.276,0-0.5,0.224-0.5,0.5v2.665v2.487v15.939h-4.588c-0.275,0-0.5,0.224-0.5,0.5v4.652c0,0.276,0.225,0.5,0.5,0.5h4.588v4.691
		h-4.588c-0.275,0-0.5,0.225-0.5,0.5v4.652c0,0.276,0.225,0.5,0.5,0.5h4.588v6.51c0,0.275,0.224,0.5,0.5,0.5h4.652
		c0.275,0,0.5-0.225,0.5-0.5v-6.51h12.331c0.275,0,0.5-0.224,0.5-0.5v-4.652c0-0.275-0.225-0.5-0.5-0.5h-12.331v-4.691H209.976z
		 M201.781,10.405h5.482c7.122,0,10.683,3.561,10.683,7.97s-3.561,7.97-7.97,7.97h-8.195V10.405z"/>
</g>
<g>
	<path fill="#2C98BB" d="M273.148,23.975c-0.331-0.322-0.869-0.323-1.202,0.003l-1.869,1.861c-0.323,0.33-0.323,0.868,0.004,1.202
		l7.568,7.569l0.047,0.06c0.09,0.115,0.21,0.204,0.338,0.255c0.104,0.044,0.213,0.065,0.322,0.065c0.108,0,0.217-0.021,0.319-0.063
		c0.208-0.086,0.37-0.248,0.435-0.412l8.15-15.364c0.225-0.406,0.081-0.925-0.329-1.162l-2.303-1.275
		c-0.405-0.226-0.923-0.081-1.165,0.339l-5.93,11.309L273.148,23.975z"/>
	<path fill="#2C98BB" d="M295.888,8.138l-16.95-4.117c-0.229-0.057-0.47-0.057-0.698,0l-16.953,4.118
		c-0.646,0.16-1.096,0.736-1.096,1.401v20.904c0,0.116,0.013,0.227,0.04,0.337c0.031,0.128,3.312,12.876,17.688,20.291
		c0.21,0.107,0.441,0.162,0.672,0.162s0.46-0.055,0.669-0.163c14.271-7.332,17.651-20.154,17.685-20.284
		c0.027-0.112,0.042-0.229,0.042-0.347V9.54C296.986,8.875,296.536,8.299,295.888,8.138z M292.417,13.068v16.806
		c-1.989,6.564-7.143,12.395-13.824,15.646c-10.622-5.401-13.59-14.811-13.834-15.643V13.06l13.829-3.332L292.417,13.068z"/>
</g>
<g>
	<path fill="#2C98BB" d="M342.758,25.494V16.09c0-1.252-1.019-2.271-2.271-2.271s-2.271,1.019-2.271,2.271v10.348
		c0,0.609,0.235,1.18,0.662,1.606l6.623,6.634c0.443,0.443,1.025,0.665,1.607,0.665c0.581,0,1.163-0.222,1.605-0.664
		c0.43-0.429,0.667-1,0.667-1.608c0-0.607-0.236-1.178-0.665-1.606L342.758,25.494z"/>
	<path fill="#2C98BB" d="M340.736,2.78c-12.993,0-23.563,10.571-23.563,23.564s10.57,23.563,23.563,23.563
		s23.563-10.57,23.563-23.563S353.729,2.78,340.736,2.78z M340.736,44.321c-9.912,0-17.977-8.064-17.977-17.977
		c0-9.913,8.064-17.977,17.977-17.977s17.977,8.063,17.977,17.977C358.712,36.257,350.648,44.321,340.736,44.321z"/>
</g>
<path fill="#2C98BB" d="M71.172,22.592L58.057,7.162c-0.437-0.507-1.044-0.817-1.733-0.876c-0.088-0.006-0.178-0.007-0.206-0.002
	h-5.941V4.203c0.006-1.324-0.985-2.418-2.357-2.546c-0.067-0.004-0.135-0.003-0.203-0.001H4.443C3.041,1.656,1.9,2.797,1.9,4.199
	v35.477c0,1.4,1.14,2.541,2.542,2.543h4.456c0.498,4.335,4.189,7.712,8.655,7.712c4.466,0,8.158-3.377,8.656-7.712h23.566
	c0.498,4.335,4.189,7.712,8.656,7.712c4.466,0,8.158-3.377,8.655-7.712h2.143c1.401-0.002,2.541-1.143,2.542-2.543V24.263
	C71.779,23.654,71.567,23.063,71.172,22.592z M58.432,37.591c2.034,0,3.627,1.594,3.627,3.628s-1.593,3.627-3.627,3.627
	s-3.628-1.593-3.628-3.627S56.397,37.591,58.432,37.591z M66.687,26.794v10.34h-0.569c-1.513-2.832-4.462-4.628-7.686-4.628
	s-6.173,1.796-7.687,4.628h-0.569v-10.34H66.687z M50.176,21.709v-10.34h4.78l8.785,10.34H50.176z M17.554,37.591
	c2.034,0,3.628,1.594,3.628,3.628s-1.594,3.627-3.628,3.627s-3.627-1.593-3.627-3.627S15.52,37.591,17.554,37.591z M45.091,8.826
	v28.308H25.241c-1.513-2.832-4.462-4.628-7.687-4.628s-6.173,1.796-7.686,4.628H6.985V6.741h38.106v1.918
	C45.088,8.732,45.089,8.799,45.091,8.826z"/>
</svg>
