<svg aria-hidden="true" style="position:absolute;width:0;height:0" xmlns="http://www.w3.org/2000/svg" overflow="hidden"><defs><symbol id="icon-product-kit" viewBox="0 0 32 32"><path d="M16.001 32h-.003C7.162 32-.001 24.837-.001 16.001S7.162.002 15.998.002s15.999 7.163 15.999 15.999v.003C31.985 24.833 24.83 31.988 16.002 32h-.001zM9.524 14.439a1.349 1.349 0 0 0-.998 2.257l-.001-.001 5.265 5.8 10.083-10.08a1.349 1.349 0 0 0-1.908-1.904l.001-.001-8.083 8.078-3.357-3.711a1.347 1.347 0 0 0-.997-.44h-.016.001z"/></symbol><symbol id="icon-arrow-left" viewBox="0 0 23 32"><path fill="none" stroke="#606060" stroke-width="5.547" stroke-miterlimit="10" d="M20.977 29.817L4.335 16.764 20.977 2.08"/></symbol><symbol id="icon-arrow-right" viewBox="0 0 23 32"><path fill="none" stroke="#606060" stroke-width="5.547" stroke-miterlimit="10" d="M1.836 29.817l16.642-13.053L1.836 2.08"/></symbol><symbol id="icon-product-info" viewBox="0 0 29 32"><path d="M28 .001H1.332C.596.001-.001.598-.001 1.334v25.334h1.334V8.001a2.669 2.669 0 0 1 2.666-2.665h21.334A2.67 2.67 0 0 1 28 8.002v18.666h1.334V1.334c0-.736-.597-1.333-1.333-1.333H28zM2.667 30.667C2.667 31.403 3.264 32 4 32h2.669c.736 0 1.333-.597 1.333-1.333v-1.334H2.667zm18.667 0c0 .736.597 1.333 1.333 1.333h2.669c.736 0 1.333-.597 1.333-1.333v-1.334h-5.335z"/><path d="M26.667 28h-24V8c0-.736.597-1.333 1.333-1.334h21.334A1.336 1.336 0 0 1 26.668 8v19.999zM22 20.001a1.999 1.999 0 1 0 1.999 2 2.002 2.002 0 0 0-2-2zm-14.667 0a1.999 1.999 0 1 0 1.999 2 2.002 2.002 0 0 0-2-2zm-.667-9.334a1.335 1.335 0 0 0-1.333 1.335v4c0 .736.597 1.333 1.333 1.334H22.67a1.336 1.336 0 0 0 1.334-1.334v-4a1.335 1.335 0 0 0-1.334-1.333z"/></symbol><symbol id="icon-product-info1" viewBox="0 0 29 32"><path d="M0 23.869l14.086 8.127V17.374L0 9.241zM.64 8.134l14.085 8.131 6.243-3.601L6.883 4.528zM14.725 0L8.163 3.789l14.085 8.134 6.563-3.789zm.64 17.374V32l14.086-8.131V9.241z"/></symbol><symbol id="icon-product-info3" viewBox="0 0 32 32"><path d="M16 4h-.001a5.332 5.332 0 0 0-5.332 5.332v.037a6.602 6.602 0 0 1 10.646-.018l.013.018v-.037A5.33 5.33 0 0 0 16.001 4z"/><path d="M16 8a5.333 5.333 0 1 1-5.333 5.333A5.333 5.333 0 0 1 16 8zm-5.333 12a5.307 5.307 0 0 0-4.6 2.679l-.014.026c2.184 3.213 5.822 5.297 9.947 5.299a12.222 12.222 0 0 0 2.16-.214l-.076.012a8.62 8.62 0 0 1-.081-1.126v-.004c.001-.333.02-.66.057-.982l-.004.041c.012-.101.031-.199.045-.298.03-.208.062-.414.106-.617.025-.112.057-.222.087-.334.048-.185.1-.369.158-.549.037-.112.081-.221.122-.331a8.67 8.67 0 0 1 .364-.828q.126-.25.271-.492a8.728 8.728 0 0 1 .508-.763c.062-.082.122-.165.184-.246.133-.166.276-.327.421-.484.055-.06.107-.122.164-.181.195-.199.401-.389.614-.568a.509.509 0 0 0 .026-.038l.001-.002H10.665z"/><path d="M16 32a16.013 16.013 0 0 0 3.65-.428l-.108.022a8.494 8.494 0 0 1-1.17-2.419l-.016-.061c-.706.138-1.52.218-2.352.221h-.076c-7.404 0-13.405-6.002-13.405-13.405S8.525 2.525 15.928 2.525c7.404 0 13.405 6.002 13.405 13.405 0 .858-.081 1.696-.234 2.509l.013-.084c.945.284 1.77.689 2.51 1.207l-.028-.018c.252-1.063.396-2.284.396-3.539C31.99 7.171 24.829.01 15.995.01S0 7.171 0 16.005 7.161 32 15.995 32H16z"/><path d="M31.852 24.309l-1.885-1.885-4.716 4.714-1.885-1.885-1.885 1.885 3.77 3.772z"/></symbol><symbol id="icon-calendar" viewBox="0 0 32 32"><path d="M10 12h4v4h-4zm6 0h4v4h-4zm6 0h4v4h-4zM4 24h4v4H4zm6 0h4v4h-4zm6 0h4v4h-4zm-6-6h4v4h-4zm6 0h4v4h-4zm6 0h4v4h-4zM4 18h4v4H4zM26 0v2h-4V0H8v2H4V0H0v32h30V0h-4zm2 30H2V8h26v22z"/></symbol><symbol id="icon-star-empty" viewBox="0 0 32 32"><path d="M32 12.408l-11.056-1.607L16 .783l-4.944 10.018L0 12.408l8 7.798-1.889 11.011L16 26.018l9.889 5.199L24 20.206l8-7.798zM16 23.547l-6.983 3.671 1.334-7.776-5.65-5.507 7.808-1.134 3.492-7.075 3.492 7.075 7.807 1.134-5.65 5.507 1.334 7.776-6.983-3.671z"/></symbol><symbol id="icon-star-full" viewBox="0 0 32 32"><path d="M32 12.408l-11.056-1.607L16 .783l-4.944 10.018L0 12.408l8 7.798-1.889 11.011L16 26.018l9.889 5.199L24 20.206l8-7.798z"/></symbol><symbol id="icon-cross" viewBox="0 0 32 32"><path d="M14.47 15.893L.306 30.057a1.007 1.007 0 1 0 1.424 1.425l14.271-14.27 14.271 14.27c.197.197.454.295.712.295s.515-.098.712-.295a1.007 1.007 0 0 0 0-1.425L17.533 15.893 31.706 1.719A1.007 1.007 0 1 0 30.282.294l-14.279 14.28L1.722.294A1.007 1.007 0 0 0 .298 1.719l14.174 14.174z"/></symbol><symbol id="icon-youtube-logo" viewBox="0 0 32 32"><path d="M25.223 23.407h-1.756l.008-1.02c0-.453.372-.824.827-.824h.112c.456 0 .829.371.829.824l-.02 1.02zm-6.587-2.186c-.445 0-.81.299-.81.666v4.961c0 .366.364.665.81.665.447 0 .812-.299.812-.665v-4.961c0-.367-.365-.666-.812-.666zm10.697-2.775v9.438c0 2.264-1.963 4.116-4.363 4.116H7.029c-2.4 0-4.363-1.852-4.363-4.116v-9.438c0-2.264 1.963-4.117 4.363-4.117H24.97c2.4 0 4.363 1.853 4.363 4.117zM8.226 28.908l-.001-9.942 2.224.001v-1.473l-5.929-.009v1.448l1.851.005v9.969h1.855zm6.667-8.46h-1.854v5.309c0 .768.047 1.152-.003 1.287-.151.412-.828.849-1.093.044-.045-.141-.005-.566-.006-1.295l-.007-5.345h-1.844l.006 5.262c.001.806-.018 1.408.006 1.681.045.483.029 1.045.477 1.366.834.601 2.433-.09 2.833-.949l-.004 1.096 1.489.002v-8.459zm5.932 6.079l-.004-4.418c-.001-1.684-1.261-2.692-2.971-1.33l.007-3.285-1.852.003-.009 11.339 1.523-.022.139-.706c1.946 1.785 3.169.562 3.167-1.58zm5.803-.586l-1.39.007-.004.188v.776a.759.759 0 0 1-.76.753h-.272a.76.76 0 0 1-.761-.753v-2.041h3.184v-1.198c0-.876-.022-1.751-.095-2.252-.228-1.584-2.451-1.835-3.574-1.024a2.092 2.092 0 0 0-.778 1.047c-.158.455-.236 1.078-.236 1.868v2.635c.001 4.38 5.321 3.761 4.686-.006zm-7.132-14.303c.096.233.244.421.446.563.199.14.454.21.759.21.267 0 .504-.072.71-.221s.379-.37.52-.665l-.035.727h2.067v-8.79h-1.627v6.841a.678.678 0 0 1-1.355 0V3.462h-1.698v5.929c0 .755.014 1.259.036 1.514.023.254.081.497.177.732zm-6.263-4.964c0-.844.07-1.503.21-1.978.141-.473.394-.854.76-1.141.365-.288.833-.433 1.401-.433.478 0 .888.094 1.23.278.344.185.609.425.793.721.187.297.315.603.383.915.069.317.103.795.103 1.439v2.223c0 .815-.033 1.415-.096 1.796a2.852 2.852 0 0 1-.407 1.068 1.933 1.933 0 0 1-.795.731 2.54 2.54 0 0 1-1.121.236c-.471 0-.868-.065-1.195-.201a1.64 1.64 0 0 1-.762-.609c-.182-.271-.311-.601-.388-.986S13.234 9.77 13.234 9l.001-2.327zm1.619 3.491c0 .498.37.904.822.904s.821-.406.821-.904V5.486c0-.497-.369-.903-.821-.903s-.822.406-.822.903v4.679zm-5.721 2.363h1.95l.002-6.741L13.387.012h-2.133l-1.225 4.289L8.787 0H6.676l2.451 5.79.003 6.738z"/></symbol><symbol id="icon-odnoklassniki" viewBox="0 0 32 32"><path d="M14.281 22.326c-2.43-.253-4.62-.852-6.495-2.319-.233-.183-.473-.359-.686-.563-.821-.788-.904-1.691-.254-2.622.555-.797 1.488-1.01 2.457-.551.189.088.367.199.538.317 3.495 2.402 8.297 2.468 11.805.109.347-.268.72-.484 1.15-.596.837-.215 1.617.093 2.067.826.513.836.507 1.654-.126 2.303-.969.997-2.136 1.716-3.433 2.219-1.226.474-2.569.715-3.897.874.2.218.295.325.42.452 1.805 1.812 3.617 3.618 5.415 5.436.614.62.742 1.387.404 2.109-.369.789-1.196 1.306-2.005 1.25-.513-.035-.912-.29-1.268-.647-1.362-1.372-2.75-2.716-4.083-4.112-.388-.406-.575-.329-.918.024a278.004 278.004 0 0 1-4.162 4.18c-.63.62-1.378.731-2.107.377-.774-.375-1.267-1.167-1.231-1.962.027-.538.292-.949.66-1.317 1.787-1.784 3.567-3.572 5.349-5.357.117-.119.228-.245.399-.428z"/><path d="M15.76 16.114c-4.333-.014-7.888-3.607-7.862-7.949C7.924 3.776 11.48.239 15.856.252c4.385.012 7.906 3.6 7.883 8.034-.022 4.332-3.601 7.843-7.979 7.828zm3.939-7.938a3.863 3.863 0 0 0-3.875-3.872 3.867 3.867 0 0 0-3.884 3.92 3.865 3.865 0 0 0 3.904 3.843A3.856 3.856 0 0 0 19.7 8.176z"/></symbol><symbol id="icon-vk" viewBox="0 0 32 32"><path d="M31.826 23.334a2.26 2.26 0 0 0-.108-.208c-.555-1-1.616-2.227-3.182-3.682l-.033-.033-.017-.016-.016-.017h-.017c-.711-.677-1.161-1.133-1.349-1.366-.345-.444-.422-.894-.234-1.349.133-.344.633-1.071 1.499-2.182.455-.589.816-1.06 1.083-1.416 1.921-2.555 2.754-4.187 2.499-4.898l-.099-.166c-.067-.1-.239-.191-.516-.275s-.633-.097-1.066-.042l-4.798.033c-.078-.027-.189-.025-.333.009l-.217.05-.083.042-.066.05c-.056.033-.117.091-.183.175s-.122.181-.166.292a27.099 27.099 0 0 1-1.783 3.748c-.411.689-.788 1.285-1.133 1.791s-.633.878-.866 1.116c-.233.239-.444.43-.633.575s-.333.205-.433.183a8.676 8.676 0 0 1-.284-.067c-.156-.1-.28-.236-.375-.408s-.158-.389-.192-.65c-.033-.261-.053-.486-.058-.675s-.003-.456.009-.8c.012-.344.017-.578.017-.7 0-.422.008-.88.025-1.374s.03-.886.042-1.174c.011-.289.016-.594.016-.916s-.019-.575-.058-.758c-.038-.183-.097-.361-.175-.533s-.192-.305-.341-.4a1.889 1.889 0 0 0-.558-.225c-.589-.133-1.338-.205-2.249-.217-2.066-.022-3.393.111-3.981.4a2.25 2.25 0 0 0-.633.5c-.2.244-.228.378-.083.4.666.1 1.138.338 1.416.716l.1.2c.078.144.156.4.233.766s.128.772.15 1.216c.056.811.056 1.505 0 2.082s-.108 1.027-.158 1.349c-.05.322-.125.583-.225.783s-.167.322-.2.366a.287.287 0 0 1-.083.083c-.144.055-.294.083-.45.083s-.344-.078-.566-.233c-.222-.156-.452-.369-.691-.641s-.508-.653-.808-1.141a19.91 19.91 0 0 1-.933-1.732l-.266-.483c-.167-.311-.394-.764-.683-1.358s-.544-1.169-.766-1.724a1.098 1.098 0 0 0-.4-.533l-.083-.05c-.055-.044-.144-.091-.266-.142s-.25-.086-.383-.108l-4.564.033c-.466 0-.783.106-.95.317l-.067.1c-.033.056-.05.144-.05.267s.033.272.1.45c.666 1.566 1.391 3.076 2.174 4.531s1.463 2.627 2.041 3.515c.577.889 1.166 1.727 1.766 2.515s.997 1.294 1.191 1.516c.195.223.347.389.458.5l.417.4c.266.266.658.586 1.174.958s1.088.738 1.716 1.1c.627.361 1.358.655 2.191.883s1.644.319 2.432.275h1.916c.389-.034.683-.156.883-.367l.066-.084c.045-.066.086-.169.125-.308s.058-.292.058-.458c-.011-.477.025-.908.108-1.291s.178-.672.283-.866c.106-.194.225-.358.358-.491s.228-.214.284-.242a.96.96 0 0 1 .133-.058c.266-.089.58-.003.942.258s.699.583 1.016.966c.317.383.697.813 1.141 1.291s.833.832 1.166 1.066l.333.2c.222.133.511.256.866.367s.666.139.933.083l4.264-.067c.422 0 .75-.07.983-.208s.372-.292.417-.458c.044-.167.047-.356.009-.567a2.159 2.159 0 0 0-.117-.441z"/></symbol><symbol id="icon-facebook" viewBox="0 0 32 32"><path d="M23.917.048L19.825.042c-4.596 0-7.566 3.048-7.566 7.764v3.58H8.145a.643.643 0 0 0-.644.642v5.188c0 .354.288.642.644.642h4.114v13.088c0 .354.287.642.642.642h5.367a.642.642 0 0 0 .643-.642V17.858h4.809a.644.644 0 0 0 .645-.642l.002-5.188a.646.646 0 0 0-.644-.643h-4.811V8.35c0-1.458.347-2.199 2.248-2.199l2.755-.002a.643.643 0 0 0 .644-.642V.691a.644.644 0 0 0-.642-.644z"/></symbol><symbol id="icon-google-plus" viewBox="0 0 32 32"><path d="M10.181 14.294v3.494h5.775c-.231 1.5-1.744 4.394-5.775 4.394-3.475 0-6.313-2.881-6.313-6.431S6.706 9.32 10.181 9.32c1.981 0 3.3.844 4.056 1.569l2.762-2.662c-1.775-1.656-4.075-2.662-6.819-2.662C4.549 5.571-.001 10.121-.001 15.753s4.55 10.181 10.181 10.181c5.875 0 9.775-4.131 9.775-9.95a9.27 9.27 0 0 0-.163-1.688h-9.613zM32 14h-3v-3h-3v3h-3v3h3v3h3v-3h3z"/></symbol><symbol id="icon-instagram" viewBox="0 0 32 32"><path d="M16 2.881c4.275 0 4.781.019 6.462.094 1.563.069 2.406.331 2.969.55a4.952 4.952 0 0 1 1.837 1.194 5.015 5.015 0 0 1 1.2 1.838c.219.563.481 1.412.55 2.969.075 1.688.094 2.194.094 6.463s-.019 4.781-.094 6.463c-.069 1.563-.331 2.406-.55 2.969a4.94 4.94 0 0 1-1.194 1.837 5.02 5.02 0 0 1-1.837 1.2c-.563.219-1.413.481-2.969.55-1.688.075-2.194.094-6.463.094s-4.781-.019-6.463-.094c-1.563-.069-2.406-.331-2.969-.55a4.952 4.952 0 0 1-1.838-1.194 5.02 5.02 0 0 1-1.2-1.837c-.219-.563-.481-1.413-.55-2.969-.075-1.688-.094-2.194-.094-6.463s.019-4.781.094-6.463c.069-1.563.331-2.406.55-2.969a4.964 4.964 0 0 1 1.194-1.838 5.015 5.015 0 0 1 1.838-1.2c.563-.219 1.412-.481 2.969-.55 1.681-.075 2.188-.094 6.463-.094zM16 0c-4.344 0-4.887.019-6.594.094-1.7.075-2.869.35-3.881.744-1.056.412-1.95.956-2.837 1.85a7.833 7.833 0 0 0-1.85 2.831C.444 6.538.169 7.7.094 9.4.019 11.113 0 11.656 0 16s.019 4.887.094 6.594c.075 1.7.35 2.869.744 3.881.413 1.056.956 1.95 1.85 2.837a7.82 7.82 0 0 0 2.831 1.844c1.019.394 2.181.669 3.881.744 1.706.075 2.25.094 6.594.094s4.888-.019 6.594-.094c1.7-.075 2.869-.35 3.881-.744 1.05-.406 1.944-.956 2.831-1.844s1.438-1.781 1.844-2.831c.394-1.019.669-2.181.744-3.881.075-1.706.094-2.25.094-6.594s-.019-4.887-.094-6.594c-.075-1.7-.35-2.869-.744-3.881a7.506 7.506 0 0 0-1.831-2.844A7.82 7.82 0 0 0 26.482.843C25.463.449 24.301.174 22.601.099c-1.712-.081-2.256-.1-6.6-.1z"/><path d="M16 7.781c-4.537 0-8.219 3.681-8.219 8.219s3.681 8.219 8.219 8.219 8.219-3.681 8.219-8.219A8.221 8.221 0 0 0 16 7.781zm0 13.55a5.331 5.331 0 1 1 0-10.663 5.331 5.331 0 0 1 0 10.663zM26.462 7.456a1.919 1.919 0 1 1-3.838 0 1.919 1.919 0 0 1 3.838 0z"/></symbol><symbol id="icon-twitter" viewBox="0 0 32 32"><path d="M32 7.075a12.941 12.941 0 0 1-3.769 1.031 6.601 6.601 0 0 0 2.887-3.631 13.21 13.21 0 0 1-4.169 1.594A6.565 6.565 0 0 0 22.155 4a6.563 6.563 0 0 0-6.563 6.563c0 .512.056 1.012.169 1.494A18.635 18.635 0 0 1 2.23 5.195a6.56 6.56 0 0 0-.887 3.3 6.557 6.557 0 0 0 2.919 5.463 6.565 6.565 0 0 1-2.975-.819v.081a6.565 6.565 0 0 0 5.269 6.437 6.574 6.574 0 0 1-2.968.112 6.588 6.588 0 0 0 6.131 4.563 13.17 13.17 0 0 1-9.725 2.719 18.568 18.568 0 0 0 10.069 2.95c12.075 0 18.681-10.006 18.681-18.681 0-.287-.006-.569-.019-.85A13.216 13.216 0 0 0 32 7.076z"/></symbol><symbol id="icon-vodonagrevateli" viewBox="0 0 30 32"><path d="M19.741 12.304h-.011a2.096 2.096 0 1 0 2.096 2.096v-.011a2.085 2.085 0 0 0-2.084-2.085zm0 3.223a1.127 1.127 0 1 1 0-2.254 1.127 1.127 0 1 1 0 2.254zm1.555-9.161a.473.473 0 0 0-.473-.473h-2.152a.473.473 0 0 0-.473.473v4.282c0 .264.211.478.473.484h2.141a.485.485 0 0 0 .485-.485zm-.958 3.775h-1.183v-3.29h1.183z"/><path d="M25.634 26.648h4.225v-.958h-4.225c-.917 0-1.661-.74-1.668-1.656v-2.739h.597a.473.473 0 0 0 .473-.473v-1.127h1.127c.859 0 1.555-.696 1.555-1.555V2.625A2.625 2.625 0 0 0 25.093 0H13.825a2.638 2.638 0 0 0-2.558 2.625v15.516c0 .859.696 1.555 1.555 1.555h1.127v1.127c0 .261.212.473.473.473h.597v8.09c0 .915-.742 1.656-1.656 1.656H5.295c-.917 0-1.661-.74-1.668-1.656V15.864a1.569 1.569 0 0 0 1.025-1.453V6.973a3.16 3.16 0 0 0 1.685-2.792 3.156 3.156 0 0 0-2.35-3.051l-.022-.005a3.452 3.452 0 0 0-.828.002l.017-.002h-.019c-.574 0-1.111.155-1.573.425l.015-.008A3.17 3.17 0 0 0 .458 5.873L.45 5.858a3.28 3.28 0 0 0 1.112 1.119l.015.008v7.425a1.602 1.602 0 0 0 1.026 1.45l.011.004v13.521a2.637 2.637 0 0 0 2.637 2.614h.048-.002 8.034a2.614 2.614 0 0 0 2.614-2.614v-8.09h.597a.473.473 0 0 0 .473-.473v-1.127h4.924v1.127a.484.484 0 0 0 .484.473h.586v2.738a2.637 2.637 0 0 0 2.625 2.614h.001zM.958 4.225a2.198 2.198 0 1 1 2.197 2.253h-.001A2.197 2.197 0 0 1 .957 4.281l.001-.059v.003zm2.197 10.761h-.011a.586.586 0 0 1-.586-.586V7.38h1.127v7.023a.585.585 0 0 1-.527.583h-.002zM24.507.958h.586c.921 0 1.668.747 1.668 1.668v15.515a.586.586 0 0 1-.586.586h-1.668zM14.445 18.727h-1.667a.586.586 0 0 1-.586-.586V2.626c0-.921.747-1.668 1.668-1.668h.586zm1.611 1.611h-1.183v-.642h1.183zm-.653-1.611V.958h8.146v17.769zm7.493 1.611v-.642h1.183v.642z"/><path d="M1.6 3.752h.958v.958H1.6v-.958zm2.141 0h.958v.958h-.958v-.958z"/></symbol><symbol id="icon-vanni" viewBox="0 0 32 32"><path d="M.462 32h31.087a.462.462 0 0 0 .451-.45v-2.085a.462.462 0 0 0-.462-.462h-7.741l.361-2.186h.135a6.681 6.681 0 0 0 6.67-6.67V17.42a1.498 1.498 0 0 0-.495-2.907H1.498a1.499 1.499 0 0 0-.506 2.903l.01.003v2.727a6.682 6.682 0 0 0 6.682 6.671h.203l.361 2.186H.462a.462.462 0 0 0-.462.462v2.084c.006.25.211.451.462.451zm.462-16c0-.317.257-.575.575-.575h29.003a.575.575 0 0 1 .003 1.126l-.004.001H1.498a.575.575 0 0 1-.574-.551V16zm6.76 9.893a5.758 5.758 0 0 1-5.758-5.746v-2.648h26.039v2.13a4.214 4.214 0 0 1-4.19 4.203h-4.621v.958h4.62a5.127 5.127 0 0 0 5.116-5.115V17.5h1.127v2.648a5.757 5.757 0 0 1-5.746 5.746h-.001zm15.505.924l-.361 2.186h-1.262l-.361-2.186zm-2.592 2.186h-9.228l.361-2.186h8.552zm-9.803-2.186l-.361 2.186H9.137l-.361-2.186zm-9.87 3.11h30.152v1.127H.924zM29.465 5.07h2.084a.462.462 0 0 0 .462-.462V.462A.462.462 0 0 0 31.549 0h-2.084a.462.462 0 0 0-.462.462v.575h-7.82a.462.462 0 0 0-.462.462v3.718a2.562 2.562 0 0 0-2.028 2.489v.001c0 .255.207.462.462.462h6.208a.462.462 0 0 0 .462-.462 2.547 2.547 0 0 0-2-2.487l-.017-.003V4.09h5.285v.575a.474.474 0 0 0 .369.405l.003.001zm.462-4.146h1.127v3.223h-1.127zm-8.282 1.037h1.127v1.127h-1.127zm0 2.073h1.127v1.127h-1.127zm3.144 3.143v.079H19.64v-.079a1.615 1.615 0 0 1 1.52-1.127h2.1a1.6 1.6 0 0 1 1.525 1.116l.003.011zM23.741 3.11V1.983h5.285V3.11zm-5.093 6.208h.924v1.961h-.924V9.318zm2.073 0h.924v1.961h-.924V9.318zm2.073 0h.924v1.961h-.924V9.318zm2.062 0h.924v1.961h-.924V9.318zm-6.208 3.11h.924v.924h-.924v-.924zm2.073 0h.924v.924h-.924v-.924zm2.073 0h.924v.924h-.924v-.924zm2.062 0h.924v.924h-.924v-.924z"/></symbol><symbol id="icon-unitazi" viewBox="0 0 28 32"><path d="M14.146 20.798a1.22 1.22 0 0 0-.346 1.69l-.003-.005a10.43 10.43 0 0 1 1.428 4.161l.005.051c.07.613.586 1.085 1.212 1.085h.153a1.211 1.211 0 0 0 1.074-1.341v.006a13.101 13.101 0 0 0-1.853-5.343l.033.057a1.269 1.269 0 0 0-1.71-.355l.005-.003zm2.614 5.731l.001.03a.328.328 0 0 1-.07.203l.001-.001a.33.33 0 0 1-.456.048l.001.001a.348.348 0 0 1-.106-.211v-.002a11.603 11.603 0 0 0-1.636-4.659l.029.05a.317.317 0 0 1 .096-.435l.001-.001a.274.274 0 0 1 .158-.049h.017-.001.005c.106 0 .2.053.256.135l.001.001a11.81 11.81 0 0 1 1.698 4.832l.006.058zM1.936 4.677a.455.455 0 0 0-.445.445v1.375a.455.455 0 0 0 .9.003V5.122a.455.455 0 0 0-.455-.445z"/><path d="M26.733 14.949v-.843a.436.436 0 0 0-.436-.436H14.814a.445.445 0 0 0-.445.445v.716h-.503c.128-.225.203-.495.203-.782V3c0-.93-.754-1.685-1.685-1.685H10.08V.444a.455.455 0 0 0-.395-.445H7.611a.455.455 0 0 0-.445.445v.872h-5.48c-.93 0-1.685.754-1.685 1.685v11.047c0 .93.754 1.685 1.685 1.685h5.141a1.585 1.585 0 0 0-.203.782v.341a1.694 1.694 0 0 0 1.473 1.664l.009.001a9.038 9.038 0 0 0 1.118 3.987l-.024-.047H7.554a.445.445 0 0 0-.445.445v3.505c.005.244.202.44.445.445h1.55c0 .097 0 .203-.048.3-.329 1.985-.968 4.251-.968 4.28a.435.435 0 0 0 .078.388l-.001-.001c.08.106.207.174.349.174h15.495a.445.445 0 0 0 .412-.613l.001.003-2.149-5.645c2.392-1.581 3.988-4.2 4.143-7.201l.001-.022a1.697 1.697 0 0 0 1.472-1.665v-.34a1.656 1.656 0 0 0-1.14-1.565l-.012-.003zm-5.306 10.225a.438.438 0 0 0-.203.457v-.003a.415.415 0 0 0 .001.148v-.003l2.101 5.325H9.112c.223-.871.591-2.401.823-3.805.048-.242.087-.474.116-.726l.068-.445c.203-1.481.281-2.643.31-3.079v-.087c.003-.012.004-.025.004-.039s-.002-.027-.004-.04v.001a.417.417 0 0 0 0-.128v.003-.107a8.119 8.119 0 0 1-1.364-4.094l-.001-.021h16.46a8.325 8.325 0 0 1-4.057 6.621l-.038.021zm-13.42.775v-2.595h1.501c0 .407-.087 1.113-.194 1.985v.349a1.894 1.894 0 0 0 0 .278v-.006zm.049-24.632V.901h1.123v.416zm7.213 13.555v-.349h10.573v.271zm-6.962.9h17.835c.433 0 .784.351.784.784v.339a.784.784 0 0 1-.784.784H8.307a.784.784 0 0 1-.784-.784v-.339l-.001-.039c0-.433.351-.784.784-.784h.001zm4.077-.9H1.733a.784.784 0 0 1-.784-.784V4.406h12.219v9.682a.785.785 0 0 1-.783.746h-.001zM.9 3.428v-.426c0-.435.35-.788.784-.794h10.651a.794.794 0 0 1 .784.794v.426z"/><path d="M1.936 7.455a.455.455 0 0 0-.445.455v4.996a.455.455 0 0 0 .9.003V7.91a.455.455 0 0 0-.455-.455z"/></symbol><symbol id="icon-trapi" viewBox="0 0 29 32"><path d="M28.687 12.654a.542.542 0 0 0-.529-.541h-2.975v-2.31a1.33 1.33 0 0 0-1.33-1.33h-3.2v-2.58a.53.53 0 0 0-1.06 0v2.58h-4.158V5.014h.304a.54.54 0 0 0 .45-.402l.001-.004.913-3.955a.54.54 0 0 0-.102-.452l.001.001a.553.553 0 0 0-.416-.203H9.014a.53.53 0 0 0-.563.658L8.45.653l.913 3.91a.53.53 0 0 0 .448.405h.296v3.504H5.87v-2.58a.53.53 0 0 0-.53-.53.542.542 0 0 0-.541.529v2.581h-3.47a1.33 1.33 0 0 0-1.33 1.33v4.6c0 .347.133.662.35.899L.348 15.3v.079l2.389 4.901c0 .09.09.214.146.349.124.394.349 1.037.98 1.037h2.896v9.152c0 .595.46 1.082 1.044 1.124h8.939a1.127 1.127 0 0 0 1.048-1.124V25.53h8.62a.53.53 0 0 0 .53-.53v-6.186h1.127a.53.53 0 0 0 .53-.53v-.012.001zM9.634 1.059h6.276l-.665 2.851h-4.946zm4.743 3.921v3.493h-3.2V4.98zM1.059 9.532h23.054v5.115H1.059zm15.707 21.409H7.887v-9.273h8.901zm-2.355-13.195a.54.54 0 1 0 .003 1.07h-.003 2.355v1.792H3.989v-.304a4.25 4.25 0 0 0-.203-.511l.011.026-2.051-4.045h21.679l-.958 2.017zm11.505 6.761h-8.09v-5.634h8.09zm1.712-6.761h-3.966l1.127-2.445a1.34 1.34 0 0 0 .361-.901v-1.218h2.445z"/></symbol><symbol id="icon-tovaridachi" viewBox="0 0 20 32"><path d="M10.03 12.59h-.011a.287.287 0 0 0-.276.208l-.001.002a.274.274 0 0 0 .131.319l.001.001c.524.314.869.878.872 1.522 0 .969-.786 1.754-1.754 1.754h-.007c-.244 0-.477-.049-.689-.137l.012.004a.288.288 0 0 0-.342.087v.001a.285.285 0 0 0 0 .354v-.001a2.457 2.457 0 0 0 1.888.883h.01-.001a2.506 2.506 0 0 0 .153-4.998l-.01-.001zm-.143 4.414a2.165 2.165 0 0 1-.556-.081l.015.004a2.343 2.343 0 0 0 1.975-2.306v-.015c0-.4-.106-.775-.293-1.099l.006.011a1.93 1.93 0 0 1-1.101 3.487h-.002z"/><path d="M19.708 9.666L10.119.077a.296.296 0 0 0-.398 0L.088 9.721a.266.266 0 0 0-.001.397l.574.574a.266.266 0 0 0 .397.001L2.691 9.06v22.654c0 .158.128.287.287.287H16.76a.287.287 0 0 0 .276-.287V8.961l1.721 1.688a.297.297 0 0 0 .408 0l.574-.585a.266.266 0 0 0 .001-.397zM3.31 8.497L5.517 6.29v4.414h-.265a.287.287 0 0 0-.276.287v20.447H3.31zm10.45-2.869v5.12h-2.207V3.443zM5.517 19.961h8.828v2.394H5.517zm8.828-.573H5.517v-8.066h8.828zm-3.311-8.64H8.827V3.024L9.93 1.921l1.037 1.103zm-2.747 0H6.08v-5.01l2.207-2.207zm-2.77 20.689v-8.519h8.828v8.519zm10.935 0h-1.578V11.034a.287.287 0 0 0-.287-.287h-.243V6.201l2.207 2.207zm2.483-21.396L16.96 8.066l-2.759-2.748-4.083-4.083a.277.277 0 0 0-.398 0L.892 10.063l-.21-.132L9.929.684l9.181 9.181z"/></symbol><symbol id="icon-svetilniki" viewBox="0 0 25 32"><path d="M10.937 32h.721a3.716 3.716 0 0 0 3.716-3.716v-3.328h.078a2.99 2.99 0 0 0 2.637-2.444l.003-.018v-.067h.157a1.109 1.109 0 0 0 1.107-1.179v.003-2.473h.067c.247-.071.455-.211.608-.397l.002-.002a22.874 22.874 0 0 0 3.402-5.304l.059-.142c.702-1.693 1.109-3.659 1.109-5.721v-.05.003-.51h-6.944v-.067a2.811 2.811 0 0 0-2.721-2.118c-1.33 0-2.443.925-2.733 2.166l-.004.019H5.246v.504c0 2.064.407 4.034 1.146 5.832l-.037-.102a22.971 22.971 0 0 0 3.486 5.476l-.025-.03c.15.194.361.336.602.398l.008.002h.067v2.462l-.002.067c0 .613.497 1.109 1.109 1.109h.157v.067a3.001 3.001 0 0 0 2.649 2.506l.013.001v3.328a2.795 2.795 0 0 1-2.76 2.784h-.723a2.806 2.806 0 0 1-2.795-2.771v-3.429a3.716 3.716 0 0 0-3.704-3.716h-.988v-3.15a2.274 2.274 0 0 0-2.216-2.218H.919v-2.218h-.921v17.181h.921V28.52h.255l.055.001a2.218 2.218 0 0 0 2.218-2.218v-4.238h.987a2.795 2.795 0 0 1 2.795 2.795v3.427a3.716 3.716 0 0 0 3.704 3.716h.001zm2.218-25.434a1.898 1.898 0 1 1 3.467-.012l.005.012v.122h-3.483zm-2.407 11.325a.222.222 0 0 1-.199-.143l-.001-.002a21.45 21.45 0 0 1-3.272-5.09l-.055-.134a13.664 13.664 0 0 1-1.031-4.86v-.064h17.47v.089a14.164 14.164 0 0 1-1.066 4.975l.035-.094a22.124 22.124 0 0 1-3.352 5.253l.024-.029a.22.22 0 0 1-.186.1H19.1h.001zm.843 3.616c-.078 0-.177-.122-.177-.266v-2.385h7.021v2.429c0 .144-.1.266-.177.266zm1.109 1.021v-.111h4.437v.111a2.045 2.045 0 0 1-1.835 1.508h-.727a2.042 2.042 0 0 1-1.849-1.494l-.003-.014zM2.507 26.299c0 .747-.606 1.353-1.353 1.353H.921V16.638h.255c.747 0 1.353.606 1.353 1.353z"/><path d="M8.186 11.902a.454.454 0 0 0 .001.347l-.001-.003a14.852 14.852 0 0 0 2.688 4.454l-.014-.017a.465.465 0 0 0 .644.066l-.001.001a.465.465 0 0 0 .066-.656l.001.001a13.867 13.867 0 0 1-2.485-4.043l-.033-.094a.468.468 0 0 0-.432-.311.374.374 0 0 0-.158 0h.003a.456.456 0 0 0-.276.252l-.001.003zm-.599-3.195c0 .455 0 .898.089 1.32a.467.467 0 0 0 .512.399h-.002a.44.44 0 0 0 .299-.165l.001-.001a.484.484 0 0 0 .1-.346v.002c0-.388-.067-.799-.078-1.22a.455.455 0 0 0-.455-.455.466.466 0 0 0-.466.466zM15.384.455a.466.466 0 0 0-.92-.002V2.22a.466.466 0 1 0 .92-.002v.003zm2.784.654a.524.524 0 0 0-.209-.276l-.002-.001a.428.428 0 0 0-.236.001l.003-.001h-.122a.524.524 0 0 0-.276.209l-.001.002-.898 1.564a.44.44 0 0 0 .001.357l-.001-.003c.029.12.106.218.209.276l.002.001a.467.467 0 0 0 .62-.164l.001-.002.91-1.564a.496.496 0 0 0-.001-.403l.001.003zm2.052 2.274a.485.485 0 0 0-.001-.358l.001.003a.521.521 0 0 0-.274-.21l-.004-.001h-.122a.46.46 0 0 0-.235.068l.002-.001-1.564.91a.455.455 0 0 0-.21.274l-.001.003a.42.42 0 0 0 .001.347l-.001-.003a.465.465 0 0 0 .624.165l-.002.001 1.531-.921a.527.527 0 0 0 .254-.274l.001-.003zm-6.754-.488a.44.44 0 0 0-.001-.357l.001.003-.943-1.564a.52.52 0 0 0-.318-.21l-.003-.001h-.122a.428.428 0 0 0-.236.001l.003-.001a.521.521 0 0 0-.21.274l-.001.004a.485.485 0 0 0 .001.358l-.001-.003.91 1.564a.465.465 0 0 0 .624.165l-.002.001a.434.434 0 0 0 .298-.23l.001-.002zm-1.431 1.542a.42.42 0 0 0-.001-.347l.001.003a.458.458 0 0 0-.209-.276l-.002-.001-1.52-.954a.463.463 0 0 0-.233-.067l-.089.022a.524.524 0 0 0-.276.209l-.001.002a.485.485 0 0 0 .001.358l-.001-.003a.524.524 0 0 0 .209.276l.002.001 1.564.898a.472.472 0 0 0 .554-.121v-.001z"/></symbol><symbol id="icon-smesiteli" viewBox="0 0 30 32"><path d="M9.589 17.482v8.612a.45.45 0 0 0 .449.438.438.438 0 0 0 .438-.438v-8.623a.427.427 0 0 0-.427-.427h-.012.001-.011a.438.438 0 0 0-.438.438zm0-4.199v1.774a.45.45 0 0 0 .449.438.438.438 0 0 0 .438-.438v-1.785a.438.438 0 0 0-.438-.438.449.449 0 0 0-.449.449zM0 31.562A.45.45 0 0 0 .437 32h13.036a.449.449 0 1 0-.002-.886h.003v-1.437a.438.438 0 0 0-.438-.438h-.595V18.932h10.813v1.134c0 .242.196.438.438.438h4.592a.438.438 0 0 0 .438-.438v-.012.001-1.123h.696a.438.438 0 0 0 .438-.438v-4.143a.449.449 0 0 0-.449-.449H12.441v-3.189a.45.45 0 0 0-.437-.438h-.394a4.866 4.866 0 0 0-.303-1.325l.011.033.786-.135a.44.44 0 0 0 .348-.519l.001.003-.618-3.458-.09-.382 10.229-1.853a.428.428 0 0 0 .28-.178l.001-.001a.447.447 0 0 0 .078-.34v.003L22.019.36A.45.45 0 0 0 21.5.001h.003L.933 3.717a.45.45 0 0 0-.359.519v-.003l.943 5.244a.439.439 0 0 0 .431.359h.433c0 .146 0 .292-.067.438h-.393a.438.438 0 0 0-.438.438v18.481H.888a.449.449 0 0 0-.449.449v1.426a.45.45 0 0 0-.438.496v-.002zM11.587 3.571l-.146-.853L21.232.955l.146.853zm-.988 4.682l-3.862.73H2.324l-.808-4.491 9.05-1.617.393 2.189.55 3.02zM3.267 9.836h3.559l3.604-.651c.142.327.245.707.29 1.104l.002.018H3.188a3.6 3.6 0 0 1 .079-.472zm8.287 19.357H2.358V11.161h9.196v18.032zm12.575-10.307h3.716v.662h-3.716zm-11.688-.876v-3.222h16.528v3.267H12.441zM1.325 31.113v-.988h11.228v.988zm24.354-6.916a.427.427 0 0 0-.135.311v.003c0 .242.196.438.438.438h.012-.001a.43.43 0 0 0 .303-.124.427.427 0 0 0 .135-.311v-.003a.449.449 0 0 0-.753-.314zm0-2.1a.427.427 0 0 0-.135.311v.003a.43.43 0 0 0 .124.303.45.45 0 0 0 .321.135h.005a.43.43 0 0 0 .303-.124.437.437 0 0 0 .135-.314v-.003a.425.425 0 0 0-.135-.311.457.457 0 0 0-.618 0zm0 4.199a.437.437 0 0 0 .305.752h.01a.44.44 0 1 0-.315-.753zm0 2.1a.437.437 0 0 0-.135.314v.003c0 .123.052.233.135.311a.403.403 0 0 0 .301.135h.014-.001a.449.449 0 0 0 .303-.135.427.427 0 0 0 .135-.311v-.003a.432.432 0 0 0-.135-.314.457.457 0 0 0-.618 0z"/></symbol><symbol id="icon-rakovina" viewBox="0 0 32 32"><path d="M29.788 11.423h-6.287V9.73h1.693a.53.53 0 0 0 .003-1.049h-4.428a.53.53 0 1 0 .003 1.048h-.003 1.682v1.693h-5.068V3.318a3.331 3.331 0 0 0-6.648-.009v1.059a.53.53 0 0 0 1.06 0v-1.05a2.257 2.257 0 0 1 4.516 0v8.104H9.538V9.729h1.75a.53.53 0 1 0-.003-1.048h.003-4.447a.53.53 0 1 0 .003 1.048h-.003 1.682v1.693H2.258a2.257 2.257 0 0 0 0 4.516h.079v.09c.299 5.161 4.41 9.272 9.544 9.57l.027.001h.079v5.915c0 .293.238.53.53.53h6.49a.53.53 0 0 0 .519-.53v-5.948h.079c5.282-.181 9.538-4.332 9.886-9.552l.002-.031v-.09h.293a2.258 2.258 0 0 0 0-4.516zm-1.355 4.571c-.34 4.772-4.292 8.516-9.12 8.522h-.317a.53.53 0 0 0-.53.53v5.903h-5.441v-5.903a.53.53 0 0 0-.519-.53h-.001a9.167 9.167 0 0 1-9.119-8.492l-.002-.03v-.102h25.058zm1.355-1.128H2.258a1.185 1.185 0 1 1 0-2.37h27.53a1.185 1.185 0 1 1 0 2.37z"/></symbol><symbol id="icon-polotencesushiteli" viewBox="0 0 22 32"><path d="M22.423 18.869V16a2.583 2.583 0 0 0-2.583-2.583H2.583a1.234 1.234 0 0 1-1.234-1.234v-.012.001-2.88l-.001-.057c0-.682.553-1.234 1.234-1.234H19.84a2.583 2.583 0 0 0 2.583-2.583V2.584A2.594 2.594 0 0 0 19.841.001H1.623a.674.674 0 0 0-.674.674c.006.37.304.668.674.674h18.218c.682 0 1.234.553 1.234 1.234v2.891c0 .682-.553 1.234-1.234 1.234H2.584A2.583 2.583 0 0 0 .001 9.291v2.88a2.583 2.583 0 0 0 2.583 2.583h17.257c.682 0 1.234.553 1.234 1.234V16v-.001 2.884c0 .65-.502 1.182-1.139 1.231h-.347v-.286a2.583 2.583 0 0 0-2.583-2.583H5.452a2.582 2.582 0 0 0-2.571 2.583v.286H1.624a.674.674 0 0 0 0 1.348H2.87v8a2.595 2.595 0 0 0 2.582 2.537h11.509a2.594 2.594 0 0 0 2.583-2.594v-7.943h.343a2.583 2.583 0 0 0 2.537-2.582v-.012.001zm-4.217 10.537c0 .688-.558 1.246-1.246 1.246H5.451a1.246 1.246 0 0 1-1.234-1.246v-2.194h13.989zm0-3.543H4.217v-6.034c0-.684.551-1.239 1.234-1.246H16.96c.688 0 1.246.558 1.246 1.246v.012-.001z"/></symbol><symbol id="icon-plitka" viewBox="0 0 32 32"><path d="M32 32v-8.756h-3.874v-2.855H32v-8.767h-3.874V8.756H32V0h-8.756v3.874h-2.855V0h-8.767v3.874H8.756V0H0v8.756h3.874v2.866H0v8.767h3.874v2.866H0v8.756h8.756v-3.885h2.866V32h8.767v-3.874h2.866V32zm-1.008-7.748v6.74h-6.74v-6.74zm0-11.622v6.796h-6.74V12.63zm-6.74-11.622h6.74v6.796h-6.74zm-3.863 3.874h2.866v3.874h3.874v2.866h-3.885v3.874H20.39v-3.874h-3.885V8.756h3.885zm-1.008 7.748v6.796h-6.796V12.63zM12.63 1.008h6.796v6.796H12.63zM8.756 4.882h2.866v3.874h3.874v2.866h-3.874v3.874H8.756v-3.874H4.882V8.756h3.874zM1.008 7.748v-6.74h6.796v6.796zm0 11.622v-6.796h6.796v6.796zm6.797 11.622H1.009v-6.74h6.796zm3.874-3.874H8.757v-3.874H4.883v-2.855h3.874v-3.885h2.866v3.885h3.874v2.866h-3.874zm7.748 3.874h-6.796v-6.74h6.796zm.962-3.874v-3.874h-3.885v-2.855h3.885v-3.885h2.866v3.885h3.874v2.866h-3.885v3.874z"/></symbol><symbol id="icon-pissuari" viewBox="0 0 17 32"><path d="M9.958 31.978c4.974-.28 7.326-2.266 7.326-6.171V10.702a2.482 2.482 0 0 0-2.47-2.471H9.958V6.408h.162a.4.4 0 0 0 .399-.399V3.236a.41.41 0 0 0-.399-.399h-.411V0H7.551v2.784h-.432a.4.4 0 0 0-.388.455v-.002.518H3.494a.4.4 0 0 0-.399.399v1.1a.4.4 0 0 0 .399.399h3.237v.399l-.001.022a.4.4 0 0 0 .399.399h.163v1.834H2.469a2.482 2.482 0 0 0-2.471 2.481v15.105c0 3.906 2.352 5.891 7.326 6.171 0-.086 1.057-.032 2.632-.086zM6.775 4.855h-2.87v-.399h2.87zM8.361.798h.561v1.985h-.561zm-.809 2.784H9.71v2.071H7.552zm1.651 2.827v1.834H8.124V6.409zm7.326 19.355c0 3.744-2.428 5.394-7.887 5.394S.755 29.507.755 25.764V10.713c0-1.23.475-1.715 1.715-1.715h12.31c1.23 0 1.705.486 1.705 1.715v15.105zM13.616 10.39H3.669c-.839.024-1.51.71-1.51 1.553v13.671c0 2.158 5.017 2.266 6.527 2.266h-.054c1.554 0 6.527-.162 6.527-2.266V11.922c0-.846-.686-1.532-1.532-1.532h-.012.001zM8.631 27.08a9.339 9.339 0 0 1-1.182-.002l.027.001a1.79 1.79 0 0 1 1.077-.358l.081.002H8.63a1.839 1.839 0 0 1 1.204.317l-.006-.004c-.295.029-.638.045-.984.045l-.225-.002h.011zm5.772-1.467c0 .356-.755 1.154-3.819 1.424-.076-.593-.874-1.079-1.953-1.079s-1.91.442-1.953 1.079c-3.064-.237-3.819-1.079-3.819-1.424v-13.67a.799.799 0 0 1 .798-.788h9.991c.437 0 .792.351.798.787v13.67z"/></symbol><symbol id="icon-phone" viewBox="0 0 32 32"><path fill="var(--color2, #528c83)" d="M18.978 6.717a6.315 6.315 0 0 1 6.315 6.315v.011-.001c0 .6.487 1.087 1.087 1.087a1.19 1.19 0 0 0 .794-.327l-.001.001c.208-.198.337-.478.337-.787v-.018.001a8.576 8.576 0 0 0-8.565-8.554h-.001a1.125 1.125 0 0 0 0 2.25z"/><path fill="var(--color2, #528c83)" d="M18.978 2.25c5.95.006 10.772 4.831 10.772 10.783v.011-.001a1.087 1.087 0 0 0 2.174 0C31.924 5.839 26.084 0 18.881 0c-.6 0-1.087.487-1.087 1.087a1.087 1.087 0 0 0 1.189 1.163h-.004zm12.402 20l-9.152-4.587a1.085 1.085 0 0 0-1.453.408l-.003.005-2.098 3.326a28.214 28.214 0 0 1-4.445-3.619 27.47 27.47 0 0 1-3.556-4.343l-.063-.102 3.326-2.109a1.088 1.088 0 0 0 .399-1.452L9.783.62A1.09 1.09 0 0 0 8.331.09l.007-.003L.729 3.13a1.09 1.09 0 0 0-.727 1.224l-.001-.007c1.209 7.201 4.575 13.464 9.4 18.259l.002.002a33.161 33.161 0 0 0 18.044 9.353l.195.027h.185l.068.002c.464 0 .861-.291 1.017-.701l.003-.007 3.054-7.609a1.088 1.088 0 0 0-.58-1.422l-.007-.003zM8.457 12.033a1.089 1.089 0 0 0-.356 1.526l-.003-.004a29.586 29.586 0 0 0 4.531 5.814l.001.001a29.681 29.681 0 0 0 5.714 4.469l.134.075a1.086 1.086 0 0 0 1.519-.364l.003-.005 2.174-3.413 7.315 3.663-2.315 5.815c-6.368-1.246-11.88-4.299-16.139-8.596l-.002-.002A30.783 30.783 0 0 1 2.435 5.078l-.032-.196 5.804-2.326 3.663 7.315z"/><path fill="var(--color2, #528c83)" d="M17.848 10.054c0 .6.487 1.087 1.087 1.087h.033c1.027 0 1.859.832 1.859 1.859l-.001.046v-.002a1.087 1.087 0 0 0 2.174 0 4.108 4.108 0 0 0-4.097-4.098h-.001a1.088 1.088 0 0 0-1.055 1.086v.023-.001z"/></symbol><symbol id="icon-otoplenie" viewBox="0 0 32 32"><path d="M30.933 27.733h-.528v-2.672c-.014-8.645-6.872-15.684-15.444-15.988l-.028-.001V4.266h.529c.6 0 1.091-.471 1.121-1.064v-2.08A1.124 1.124 0 0 0 15.462.055h-9.59c-.62 0-1.123.503-1.123 1.123v2.133A1.124 1.124 0 0 0 5.87 4.378h.529V9.06H4.266v-.528a1.124 1.124 0 0 0-1.064-1.067H1.121c-.6 0-1.091.471-1.121 1.064v9.603c0 .62.503 1.123 1.123 1.123h2.133a1.124 1.124 0 0 0 1.067-1.121v-.54h10.105a7.49 7.49 0 0 1 7.467 7.465v2.674h-.561a1.124 1.124 0 0 0-1.067 1.064v2.136c.029.577.49 1.038 1.064 1.067h9.603a1.124 1.124 0 0 0 1.067-1.064V28.8a1.124 1.124 0 0 0-1.064-1.067h-.003zM5.872 1.123h9.589v2.133H5.872zm-4.749 17.01v-9.6h2.133v9.6zm13.339-1.605H4.357v-6.422h2.582a.528.528 0 0 0 .528-.528V4.267h6.4V9.6c0 .291.236.528.528.528h.012-.001c8.24.013 14.916 6.692 14.922 14.933v2.673h-1.067v-1.606a.528.528 0 0 0-1.056 0v1.606h-4.278v-2.672a8.533 8.533 0 0 0-8.521-8.533h-.001zm16.471 14.405h-9.6V28.8h9.6z"/><path d="M27.688 24.533a.54.54 0 0 0 .495-.537l-.001-.037v.002q0-.55-.135-1.123a.54.54 0 0 0-1.056.153v.016-.001c.056.337.101.685.123 1.022a.54.54 0 0 0 .538.506l.036-.001h-.002zm-1.796-5.097a.518.518 0 0 0 .465.292h.018-.001a.542.542 0 0 0 .24-.001l-.004.001a.54.54 0 0 0 .234-.722l.001.003a13.544 13.544 0 0 0-2.255-3.379l.009.01a.528.528 0 0 0-.752 0 .528.528 0 0 0-.001.752 12.77 12.77 0 0 1 2.01 2.967l.033.076zm-2.549-4.267a.537.537 0 0 0-.067-.752l-.001-.001a14.042 14.042 0 0 0-3.789-2.213l-.096-.033a.538.538 0 0 0-.684.3l-.001.004a.527.527 0 0 0 .3.695l.004.001a12.864 12.864 0 0 1 3.602 2.127l-.02-.016a.501.501 0 0 0 .331.124h.006c.173-.01.323-.1.414-.234l.001-.002zm-7.276-3.874a13.226 13.226 0 0 0-1.676-.067h.014a.539.539 0 0 0-.539.539c0 .291.236.528.528.528h.012-.001c.539 0 1.068.037 1.587.108l-.06-.007h.067a.54.54 0 0 0 .071-1.066l-.003-.001zm-3.806-.067a.539.539 0 0 0-.528.539.56.56 0 1 0 1.122 0v-.003a.539.539 0 0 0-.598-.536h.002zm0-5.895a.528.528 0 0 0-.528.528v3.2a.56.56 0 1 0 1.122 0V5.857a.528.528 0 0 0-.598-.523h.003z"/></symbol><symbol id="icon-moika" viewBox="0 0 32 32"><path d="M15.994 16.561a2.458 2.458 0 1 0 2.469 2.47v-.001a2.47 2.47 0 0 0-2.469-2.469zm0 3.59a1.133 1.133 0 1 1 0-2.266 1.133 1.133 0 1 1 0 2.266z"/><path d="M27.922 13.989a3.681 3.681 0 0 0-3.669-3.67h-5.778V5.301a.714.714 0 0 0-.666-.668h-3.695a.691.691 0 0 0-.6.667v5.019H7.737a3.67 3.67 0 0 0-3.67 3.67v10.07a3.67 3.67 0 0 0 3.67 3.67h16.515a3.681 3.681 0 0 0 3.67-3.669v-.001zM14.839 5.97h2.265v7.771h-2.265zm11.746 18.123a2.333 2.333 0 0 1-2.333 2.333H7.737a2.333 2.333 0 0 1-2.333-2.333V13.989l-.001-.069a2.265 2.265 0 0 1 2.338-2.264h-.004 5.777v2.753a.691.691 0 0 0 .655.657h3.638a.702.702 0 0 0 .668-.655v-2.755h5.777l.069-.001a2.265 2.265 0 0 1 2.265 2.265l-.001.073v-.004z"/><path d="M32 3.466A3.477 3.477 0 0 0 28.523 0H3.467A3.477 3.477 0 0 0 .001 3.466v25.046a3.489 3.489 0 0 0 3.465 3.489h25.046a3.489 3.489 0 0 0 3.489-3.489zm-1.337 25.045a2.152 2.152 0 0 1-2.152 2.152H3.466a2.14 2.14 0 0 1-2.13-2.141v-.012.001V3.466a2.13 2.13 0 0 1 2.13-2.13h25.056c1.178 0 2.134.952 2.141 2.129v.001z"/></symbol><symbol id="icon-mebel" viewBox="0 0 36 32"><path d="M33.942 5.077h.114a2.544 2.544 0 0 0 1.803-2.43v-.046a2.602 2.602 0 0 0-2.602-2.602H2.603A2.602 2.602 0 0 0 .001 2.601v.046a2.54 2.54 0 0 0 1.785 2.425l.018.005h.114v26.224c0 .381.305.691.685.698h3.809a.697.697 0 0 0 .482-.203l3.63-3.63h14.788l3.63 3.63c.124.123.294.2.482.203h3.809a.698.698 0 0 0 .685-.698zM6.144 30.616H3.301v-2.45h5.293zm26.415 0h-2.843l-2.45-2.45h5.293zm0-3.808H3.301V5.204h29.195zm.698-23H2.603c-.532-.159-.914-.644-.914-1.219s.381-1.06.905-1.216l.009-.002h30.921a1.27 1.27 0 0 1-.259 2.436l-.007.001z"/><path d="M14.09 11.424h-3.808a.698.698 0 0 0-.685.698c0 .379.307.685.685.685h3.808a.685.685 0 0 0 .685-.685.698.698 0 0 0-.685-.698h-.001zm11.474 0h-3.808a.698.698 0 0 0-.698.698c.007.38.317.685.698.685h3.808a.698.698 0 0 0 .698-.685v-.001a.698.698 0 0 0-.698-.698z"/><path d="M5.737 23.648c0 .386.313.698.698.698h22.962a.698.698 0 0 0 .685-.698V8.34l.001-.038a.685.685 0 0 0-.685-.685H6.435a.698.698 0 0 0-.698.685v.001zm1.384-14.61H28.7v6.271H7.121zm0 7.616H28.7v6.271H7.121z"/><path d="M14.09 19.129h-3.808a.698.698 0 0 0-.685.698c0 .379.307.685.685.685h3.808a.685.685 0 0 0 .685-.685.698.698 0 0 0-.685-.698h-.001zm11.474 0h-3.808a.698.698 0 0 0-.698.698c.007.38.317.685.698.685h3.808a.698.698 0 0 0 .698-.685v-.001a.698.698 0 0 0-.698-.698z"/></symbol><symbol id="icon-logo" viewBox="0 0 171 32"><path fill="var(--color2, #528c83)" d="M28.953 31.338h5.253a1.198 1.198 0 0 0 1.187-1.187v-17.86a1.198 1.198 0 0 0-1.187-1.187h-.001s-1.429.053-2.658.053-2.595-.053-2.595-.053a1.198 1.198 0 0 0-1.187 1.187v17.86a1.198 1.198 0 0 0 1.187 1.187h.001z"/><path fill="var(--color3, #f4a020)" d="M27.314 4.034a4.296 4.296 0 1 0 8.571.014l.001-.014a4.296 4.296 0 1 0-8.571-.014l-.001.014z"/><path fill="var(--color2, #528c83)" d="M75.346 10.358c-7.575 0-11.798 4.822-11.798 10.831s4.37 10.81 11.798 10.81c7.648 0 11.85-4.686 11.85-10.81s-4.37-10.831-11.85-10.831zm0 15.759a4.633 4.633 0 0 1-4.842-4.919l-.001.013a4.854 4.854 0 1 1 9.697.011v-.011a4.664 4.664 0 0 1-4.841 4.936h.009z"/><path fill="var(--color3, #f4a020)" d="M117.494 27.472a4.297 4.297 0 1 0 4.289-4.034h-.014.001a4.13 4.13 0 0 0-4.276 4.029v.005z"/><path fill="var(--color2, #528c83)" d="M107.157 31.338h5.106c.658 0 1.192-.53 1.198-1.187v-9.855c0-5.715-2.469-9.613-9.014-9.613a9.557 9.557 0 0 0-6.946 2.702l.002-.002c-1.051-1.597-3.152-2.469-5.673-2.469a.746.746 0 0 0-.843.74l.002.062v-.003s.116 3.152.116 5.557v12.88c0 .656.531 1.187 1.187 1.187h5.221l.042.001c.658 0 1.192-.531 1.198-1.187v-8.93c0-2.805 1.429-4.202 3.761-4.202s3.488 1.408 3.488 4.37v8.762a1.198 1.198 0 0 0 1.153 1.187h.002zm47.538-20.234h-5.106a1.198 1.198 0 0 0-1.187 1.187v9.855c0 6.093 2.469 9.613 9.014 9.613a9.476 9.476 0 0 0 6.947-2.64l-.003.003c1.012 1.596 2.77 2.64 4.771 2.64.14 0 .279-.005.416-.015l-.018.001c.935 0 1.345-.168 1.345-.798 0 0-.116-2.679-.116-5.705V12.292c0-.656-.531-1.187-1.187-1.187h-5.221a1.198 1.198 0 0 0-1.187 1.187v8.037c0 3.488-1.712 5.116-3.761 5.116-2.5 0-3.488-1.744-3.488-4.307v-8.846a1.198 1.198 0 0 0-1.198-1.187h-.022.001zm-18.207 2.28c-1.051-1.597-2.942-2.469-5.62-2.469a.746.746 0 0 0-.843.74l.002.062v-.003s.116 2.784.116 5.557v12.88c.006.65.528 1.175 1.176 1.187h5.169a1.198 1.198 0 0 0 1.187-1.187v-9.844c0-1.881 1.576-3.005 4.875-3.005.41 0 .84 0 1.25.053l.063.002a.988.988 0 0 0 .988-.988v-5.171a.67.67 0 0 0-.574-.713h-.004a4.001 4.001 0 0 0-.776-.074l-.09.001h.004-.046a9.751 9.751 0 0 0-6.899 2.848zM47.464 31.338h5.647c.56 0 1.043-.332 1.262-.811l.004-.009 8.184-18.332c.231-.525.084-1.114-.725-1.114 0 0-1.492.053-2.731.053s-2.668-.053-2.668-.053a1.691 1.691 0 0 0-1.708 1.102l-.004.012-4.297 10.569-4.412-10.6a1.704 1.704 0 0 0-1.707-1.05h.006s-1.544.053-2.816.053-2.816-.053-2.816-.053a.726.726 0 0 0-.723 1.116l-.002-.003 8.268 18.301c.221.478.69.806 1.238.819h.002zm-37.851 0h5.642c.562 0 1.046-.332 1.268-.811l.004-.009 8.184-18.332c.231-.525.074-1.114-.725-1.114 0 0-1.502.053-2.731.053s-2.679-.053-2.679-.053a1.682 1.682 0 0 0-1.698 1.102l-.004.012-4.265 10.569-4.444-10.6a1.704 1.704 0 0 0-1.707-1.05h.006s-1.544.053-2.816.053-2.826-.084-2.826-.084a.726.726 0 0 0-.723 1.116l-.002-.003 8.247 18.332c.219.487.7.82 1.259.82h.013-.001z"/></symbol><symbol id="icon-logo_white" viewBox="0 0 175 32"><path fill="var(--color4, #fff)" d="M34.758 11.414h-5.371a.726.726 0 0 0-.713.726v18.474c0 .401.325.726.726.726h5.397a.726.726 0 0 0 .713-.726V12.14a.74.74 0 0 0-.739-.726h-.014.001zM32.053 0a3.802 3.802 0 0 0-3.959 3.649v.007c.283 1.933 1.93 3.4 3.919 3.4s3.636-1.467 3.917-3.379l.003-.022a3.802 3.802 0 0 0-3.798-3.656L32.049 0h.004zm45.13 10.675c-6.981 0-11.678 4.289-11.678 10.675s4.698 10.649 11.678 10.649c7.205 0 11.678-4.078 11.678-10.649s-4.698-10.675-11.678-10.675zm0 16.284a5.278 5.278 0 0 1-5.489-5.568l-.001.014a5.503 5.503 0 1 1 10.992.014l.001-.013a5.278 5.278 0 0 1-5.5 5.555h.011zm47.848-2.797a3.787 3.787 0 0 0-3.959 3.649v.006c.283 1.933 1.93 3.4 3.919 3.4s3.636-1.467 3.917-3.379l.003-.021a3.802 3.802 0 0 0-3.798-3.656l-.086.001h.004zm-17.854-13.143a9.288 9.288 0 0 0-6.811 2.641l.002-.002-.422.396-.33-.488a6.314 6.314 0 0 0-5.46-2.321l.023-.002c-.317 0-.37.119-.37.317s.106 3.259.106 5.727v13.301a.74.74 0 0 0 .739.726h5.397a.726.726 0 0 0 .713-.726v-9.237c0-3.088 1.597-4.869 4.368-4.869 1.874 0 4.104.871 4.104 5.001v9.079c0 .396.317.718.712.726h5.279a.726.726 0 0 0 .713-.726V20.401c0-3.22-.779-5.648-2.336-7.218a8.786 8.786 0 0 0-6.455-2.162l.028-.002zm54.578 20.73a9.21 9.21 0 0 0 6.824-2.64l-.001.001.462-.435.304.554a5.282 5.282 0 0 0 4.859 2.506l-.016.001c.897 0 .897-.132.897-.33s-.119-2.784-.119-5.872V12.18a.74.74 0 0 0-.739-.739s-1.122.066-2.639.066-2.679-.066-2.679-.066a.74.74 0 0 0-.713.739v8.288c0 4.249-2.349 5.767-4.368 5.767-2.639 0-4.091-1.755-4.091-4.935v-9.118a.752.752 0 0 0-.724-.739h-.001c-.132 0-1.32.066-2.639.066s-2.639-.066-2.639-.066a.727.727 0 0 0-.7.725v.014-.001 10.148c-.066 6.519 2.679 9.422 8.722 9.422zm-15.281-14.898h1.32a.539.539 0 0 0 .396-.132l-.001.001a.498.498 0 0 0 .172-.378v-.019.001-5.278c0-.172 0-.224-.211-.264a3.596 3.596 0 0 0-.795.001l.016-.001h-.024a9.701 9.701 0 0 0-6.671 2.644l.005-.005-.158 1.32-.739-1.082a6.04 6.04 0 0 0-5.396-2.32l.025-.002a.48.48 0 0 0-.319.081l.002-.001a.434.434 0 0 0-.066.231v.007s.119 2.903.119 5.727V30.67a.74.74 0 0 0 .739.726h5.278a.726.726 0 0 0 .713-.726V20.443c.079-1.346.792-3.589 5.595-3.589zM47.571 30.76c.15.329.476.554.855.554h5.849a.911.911 0 0 0 .829-.548l.002-.006 8.432-18.883a.401.401 0 0 0-.001-.358l.001.002a.443.443 0 0 0-.332-.093h.002-5.595a1.325 1.325 0 0 0-1.316.823l-.003.009-4.83 11.995-4.988-12.021a1.243 1.243 0 0 0-1.326-.817l.006-.001h-5.819a.42.42 0 0 0-.318.093l.001-.001a.401.401 0 0 0 .001.358l-.001-.002zM24.558 11.507a.462.462 0 0 0-.332-.092h.002-5.595a1.325 1.325 0 0 0-1.316.823l-.003.009-4.869 12.008-4.988-12.021a1.243 1.243 0 0 0-1.326-.817l.006-.001H.305a.408.408 0 0 0-.304.093l.001-.001a.46.46 0 0 0 .001.373l-.001-.003 8.551 18.883c.149.326.47.55.844.554h5.86a.911.911 0 0 0 .829-.548l.002-.006 8.432-18.883a.389.389 0 0 0 .039-.372l.001.003z"/></symbol><symbol id="icon-location" viewBox="0 0 27 32"><path fill="var(--color5,#528c83)" d="M26.519 13.26C26.496 5.954 20.568.04 13.259.04 5.936.04-.001 5.977-.001 13.3c0 3.614 1.446 6.89 3.791 9.282l-.002-.002 9.421 9.421 9.522-9.408.631-.657a13.101 13.101 0 0 0 3.158-8.556l-.001-.126v.006zm-5.607 7.577l-7.653 7.602-7.653-7.64a10.71 10.71 0 0 1-3.094-7.545c0-5.935 4.811-10.747 10.747-10.747s10.747 4.811 10.747 10.747a10.71 10.71 0 0 1-3.095 7.546l.001-.001z"/><path fill="var(--color5,#528c83)" d="M13.26 10.267a3.637 3.637 0 1 0 3.637 3.637v-.013.001a3.637 3.637 0 0 0-3.637-3.624z"/></symbol><symbol id="icon-komplektuushie" viewBox="0 0 32 32"><path d="M24.926 20.88a5.34 5.34 0 0 0 .217-1.291v-.012a5.544 5.544 0 1 0-5.603 5.566h.312a4.23 4.23 0 1 0 5.102-4.213l-.028-.005zm-10.069-1.303a4.743 4.743 0 1 1 9.486 0c0 .436-.063.856-.179 1.254l.008-.031a4.24 4.24 0 0 0-4.167 3.471l-.004.026h-.4a4.743 4.743 0 0 1-4.743-4.719v-.001zm9.28 8.88a3.429 3.429 0 1 1 3.429-3.429 3.429 3.429 0 0 1-3.429 3.429l-.06-.001h.003z"/><path d="M23.589 22.857h-.011c-.922 0-1.669.747-1.669 1.669a.4.4 0 0 0 .4.4h.012a.389.389 0 0 0 .389-.389v-.012.001a.88.88 0 0 1 .88-.869.4.4 0 1 0 0-.8zm-3.646-6.388a.4.4 0 0 0-.4-.4 3.28 3.28 0 0 0-3.269 3.28.4.4 0 1 0 .8 0 2.48 2.48 0 0 1 2.468-2.48h.001a.4.4 0 0 0 .4-.4zm-3.269 10.148h-1.029V25.6a.4.4 0 1 0-.8 0v1.017h-1.017a.4.4 0 0 0-.4.4v.012c0 .215.174.389.389.389h1.04v1.029a.4.4 0 1 0 .8 0V27.43h1.029a.4.4 0 0 0 .4-.4v-.012a.4.4 0 0 0-.4-.4h-.012.001zm12.023-11.154h-1.029v-1.029a.4.4 0 1 0-.8 0v1.029h-1.017a.4.4 0 1 0 0 .8h1.017v1.017a.4.4 0 1 0 .8 0v-1.017h1.029a.4.4 0 1 0 0-.8z"/><path d="M29.966 8.48l.994-.994c.238-.243.384-.576.384-.943s-.147-.7-.385-.943l-.331-.331 1.2-2.571a.387.387 0 0 0-.081-.411L29.621.116a.42.42 0 0 0-.46-.079l.003-.001-2.571 1.2-.309-.263a1.322 1.322 0 0 0-1.886 0L23.369 1.99l-.469-.469a3.25 3.25 0 0 0-2.285-.949H13.46a3.269 3.269 0 0 0-3.269 3.269v26.286a1.908 1.908 0 0 0 1.908 1.874h17.989a1.91 1.91 0 0 0 1.909-1.909V11.898a3.42 3.42 0 0 0-.983-2.378zm-.709-7.6l1.726 1.737-.96 2.057L27.2 1.84zm-4.263.651a.549.549 0 0 1 .766 0l4.628 4.628a.549.549 0 0 1 0 .766l-.994.994L24 2.548zm-11.531-.16h7.177a2.48 2.48 0 0 1 1.737.72l8.069 8c.338.338.584.769.694 1.251l.003.017H10.994v-7.52a2.47 2.47 0 0 1 2.469-2.469zM30.091 31.2H12.102a1.143 1.143 0 0 1-1.143-1.143V12.16h20.24v17.931a1.144 1.144 0 0 1-1.107 1.109h-.002zM3.943 0A3.955 3.955 0 0 0 0 3.942v8.469a.4.4 0 0 0 .4.4h.549c.337 0 .611.27.617.605v.298c0 .36-.292.651-.651.651H.903h.001a.914.914 0 0 0-.903.914v1.646a.4.4 0 0 0 .4.4h1.886v9.611a1.842 1.842 0 0 0-.834 1.541v3.099a.4.4 0 0 0 .4.4h4.149a.4.4 0 0 0 .4-.4V28.5c0-.642-.329-1.207-.827-1.537l-.007-.004v-9.611h1.909a.4.4 0 0 0 .4-.4v-1.657a.903.903 0 0 0-.903-.903h-.012a.651.651 0 0 1-.651-.651v-.024.001-.32a.617.617 0 0 1 .617-.606h.549a.4.4 0 0 0 .4-.4V3.942A3.943 3.943 0 0 0 3.946-.001h-.001zM5.6 31.2H2.286v-2.709c0-.583.469-1.056 1.051-1.063h1.235c.582.006 1.051.48 1.051 1.063zm-.834-4.571H3.109v-9.28h1.657zm2.285-10.115H.8v-1.212c0-.059.045-.108.102-.114h6.069a.115.115 0 0 1 .103.114v.001zm-1.337-2.125H2.285a1.358 1.358 0 0 0 .08-.681l.001.007v-.32a1.356 1.356 0 0 0-.152-.613l.004.008h3.497a1.349 1.349 0 0 0-.149.605v.321l-.001.049c0 .228.055.443.153.633l-.004-.008zm1.395-2.378H.8V3.942a3.143 3.143 0 1 1 6.274.009v-.009z"/></symbol><symbol id="icon-installiacii" viewBox="0 0 26 32"><path d="M21.113 8.991h-1.495v1.007h1.495v.997h1.007V7.994h-1.007v.997z"/><path d="M24.515 0H1.744C.781 0 0 .781 0 1.744v30.245h10.584v-1.083h-9.5V15.523H13.13V14.44H1.084V1.744c0-.365.296-.661.661-.661h12.848v2.925h-.964v.997h-2.492v1.993H8.136l-.997-.997h-2.99v4.994h2.99l.997-.997h3.001a2.948 2.948 0 0 0 2.07 2.811l.021.006a.61.61 0 0 1 .4.752l.001-.004a.597.597 0 0 1-.495.422h-.003v2.004h.498v10.974l-.997.997v3.997h4.994V27.96l-.997-.997V15.989h.498v-.466h8.049v15.383h-5.514v1.083h6.597V1.744C26.259.781 25.478 0 24.515 0zM11.136 8.991H7.724l-.997 1.007H5.145V6.997h1.582l.997.997h3.412zm2.383 2.925a1.954 1.954 0 0 1-1.386-1.92v.003-3.997h2.492v-.997h1.007v.997h2.492v3.997l.001.05c0 .876-.578 1.617-1.373 1.863l-.014.004a1.596 1.596 0 0 0-1.08 2.004l-.003-.011c.086.286.244.528.453.714l.002.001v.412h-2.026v-.412a1.579 1.579 0 0 0 .107-2.254l.001.001a1.54 1.54 0 0 0-.661-.452l-.011-.003zm3.109 19.098h-3.001v-2.632l.997-1.007V15.99h1.007v11.385l.997 1.007zm.499-16.52v-.455a.597.597 0 0 1-.102-1.169l.004-.001a2.954 2.954 0 0 0 2.091-2.816V5.005h-2.492v-.997h-.953V1.083h8.84c.365 0 .661.296.661.661V14.44z"/></symbol><symbol id="icon-info" viewBox="0 0 32 32"><path fill="var(--color2, #528c83)" d="M16 32C7.163 32 0 24.837 0 16S7.163 0 16 0s16 7.163 16 16c-.049 8.817-7.183 15.95-15.995 16H16zm0-29.075C8.779 2.925 2.925 8.779 2.925 16S8.779 29.075 16 29.075c7.221 0 13.075-5.854 13.075-13.075-.008-7.218-5.857-13.067-13.074-13.075H16z"/><path fill="var(--color2, #528c83)" d="M17.945 14.011l.001-.053c0-.34-.116-.653-.311-.901l.002.003a1.87 1.87 0 0 0-1.461-.731h-.031c-.226 0-.442.043-.64.121l.012-.004a1.716 1.716 0 0 0-1.17 1.7v-.004 9.477c.025.606.415 1.114.955 1.313l.01.003c.148.064.32.115.499.144l.013.002h.38a1.799 1.799 0 0 0 1.77-1.799V14.01zm-1.784-7.24a1.974 1.974 0 0 0 0 3.948 1.974 1.974 0 0 0 1.93-1.944v-.046a1.96 1.96 0 0 0-1.93-1.96h-.002z"/></symbol><symbol id="icon-dushevieugolki" viewBox="0 0 27 32"><path d="M16 6.4h1.067v10.128H16V6.4zm-2.122-.225v11.8a.427.427 0 0 1-.427.427H7.466a.438.438 0 0 1-.438-.438V6.175h6.849zm.842-.842H6.187v12.632A1.28 1.28 0 0 0 7.466 19.2h6.008a1.28 1.28 0 0 0 1.246-1.233V5.333z"/><path d="M3.2 10.667V6.4H1.123v4.267zm0 20.266v-19.2H1.123v19.2zM5.333 6.4H4.21v24.533h18.728V6.4h-4.806V5.277h5.333c.294 0 .533.235.539.527v4.862h2.133V1.122H4.265v4.267h1.123zm20.806 24.533v-19.2h-2.133v19.2zM27.206.528v30.911a.539.539 0 0 1-.539.539H.528A.528.528 0 0 1 0 31.45v-.012.001V5.861c0-.291.236-.528.528-.528H3.2V.527c0-.291.236-.528.528-.528h22.939c.294 0 .533.235.539.527v.001z"/></symbol><symbol id="icon-dusheviekabini" viewBox="0 0 32 32"><path d="M0 0v32h32V0zm1.022 30.978V1.022h9.476v29.956zm29.956 0H11.52v-5.154h19.458zM21.693 8.253a3.267 3.267 0 0 1 3.197 2.709l.003.019h-6.4a3.284 3.284 0 0 1 3.198-2.728h.002zm-.506-1.516v.561a4.26 4.26 0 0 0-3.75 4.222v.517h8.545v-.517a4.257 4.257 0 0 0-3.718-4.22l-.021-.002v-.561c0-.843.684-1.527 1.527-1.527h3.593a3.637 3.637 0 0 1 3.615 3.614v15.979H11.52V1.022h19.458v4.862a4.66 4.66 0 0 0-3.614-1.752h-3.606a2.57 2.57 0 0 0-2.571 2.571v.036-.002z"/><path d="M6.366 13.406h1.022v5.154H6.366v-5.154zm12.317.157h1.022v1.246h-1.022v-1.246zm0 3.335h1.022v1.246h-1.022v-1.246zm2.695-3.335H22.4v1.246h-1.022v-1.246zm0 3.335H22.4v1.246h-1.022v-1.246zm2.717-3.335h1.022v1.246h-1.022v-1.246zm0 3.335h1.022v1.246h-1.022v-1.246zm-5.412 3.099h1.022v1.246h-1.022v-1.246zm2.695 0H22.4v1.246h-1.022v-1.246zm2.717 0h1.022v1.246h-1.022v-1.246z"/></symbol><symbol id="icon-dush" viewBox="0 0 24 32"><path d="M0 31.131a.624.624 0 0 0 .001.5l-.002-.004a.673.673 0 0 0 .368.326l.005.001a.624.624 0 0 0 .5-.001l-.004.002a.633.633 0 0 0 .393-.346l.002-.004.373-1.129a.624.624 0 0 0-.001-.5l.002.004a.613.613 0 0 0-.357-.326l-.004-.001a.45.45 0 0 0-.218.001l.003-.001H.959a.633.633 0 0 0-.552.436l-.001.004zm19.29-12.653h.008a2.461 2.461 0 0 0 1.753-4.188v-.09a9.1 9.1 0 0 0-8.296-9.028l-.034-.002h-.068V.655A.667.667 0 0 0 11.999 0h-.091a.643.643 0 0 0-.621.643v.012-.001 4.515c-4.671.407-8.311 4.291-8.33 9.028v.081a2.472 2.472 0 0 0 1.769 4.199h.004zM4.301 13.443c.35-3.965 3.655-7.05 7.681-7.05s7.331 3.086 7.679 7.021l.002.029v.102H4.289zm-.813 2.563c0-.623.505-1.129 1.129-1.129h14.674a1.18 1.18 0 0 1 0 2.36H4.674a1.129 1.129 0 0 1-1.185-1.235v.005zm-.756 10.057a.655.655 0 0 0-.391-.822l-.005-.002a.706.706 0 0 0-.218.001l.004-.001h-.068a.645.645 0 0 0-.552.447l-.001.005-.373 1.061a.624.624 0 0 0 .001.5l-.002-.004a.673.673 0 0 0 .368.326l.005.001a.655.655 0 0 0 .823-.402l.001-.005zm1.094-4.38a.684.684 0 0 0-.002-.501l.002.005a.637.637 0 0 0-.436-.327l-.004-.001a.706.706 0 0 0-.218.001l.004-.001h-.023a.633.633 0 0 0-.552.436l-.001.004-.373 1.129a.729.729 0 0 0 .001.501l-.002-.005c.08.155.215.272.379.326l.005.001a.655.655 0 0 0 .823-.402l.001-.005zm16.672 1.095a.655.655 0 1 0 1.229-.421l.002.004-.361-1.129a.644.644 0 0 0-.715-.44h.004a.656.656 0 0 0-.519.726v-.003a.288.288 0 0 0 0 .138v-.002zm-5.486 0a.656.656 0 1 0 1.24-.422l.001.005-.373-1.129a.633.633 0 0 0-.704-.439h.004a.656.656 0 0 0-.519.726v-.003.135zm6.581 4.38a.645.645 0 0 0 .828.417l-.005.001a.658.658 0 0 0 .417-.829l.001.005-.372-1.129a.633.633 0 0 0-.606-.451h-.105a.644.644 0 0 0-.553.726v-.003a.288.288 0 0 0 0 .138v-.002zm1.095 4.447a.674.674 0 0 0 .324.371l.004.002a.624.624 0 0 0 .5-.001l-.004.002a.625.625 0 0 0 .371-.313l.002-.004c.032-.075.05-.162.05-.254s-.018-.179-.052-.258l.002.004-.372-1.129a.656.656 0 0 0-.609-.451h-.102a.656.656 0 0 0-.553.737v-.003.124zm-16.762.35a.644.644 0 0 0 .845-.345l.002-.004.361-1.129a.632.632 0 0 0-.357-.845l-.004-.001a.448.448 0 0 0-.217 0l.003-.001h-.124a.645.645 0 0 0-.552.436l-.001.005-.361 1.129a.655.655 0 0 0 .402.755l.004.002zm6.039.045h.001a.665.665 0 0 0 .665-.63v-1.132a.665.665 0 0 0-.63-.665h-.092a.633.633 0 0 0-.575.656v-.001 1.129c.002.178.07.341.181.463l-.001-.001c.114.112.27.181.442.181h.01zm-3.759-5.937a.575.575 0 0 0-.002-.5l.002.004a.648.648 0 0 0-.357-.326l-.004-.001a.664.664 0 0 0-.23 0l.004-.001h-.09a.658.658 0 0 0-.552.447l-.001.005-.361 1.129a.624.624 0 0 0 .001.5l-.002-.004a.6.6 0 0 0 .368.326l.004.001a.656.656 0 0 0 .914-.47l.001-.004zm1.106-4.38a.624.624 0 0 0-.001-.5l.002.004a.613.613 0 0 0-.357-.326l-.004-.001a.664.664 0 0 0-.23 0l.004-.001a.645.645 0 0 0-.563.436l-.001.005-.361 1.129a.624.624 0 0 0 .001.5l-.002-.004a.673.673 0 0 0 .368.326l.005.001a.655.655 0 0 0 .823-.402l.001-.005zm6.807 5.475a.633.633 0 0 0 .817.416l-.004.001a.654.654 0 0 0 .382-.324l.002-.004a.624.624 0 0 0-.001-.5l.002.004-.372-1.129a.622.622 0 0 0-.597-.452h-.103a.642.642 0 0 0-.428.247l-.001.002a.605.605 0 0 0-.135.477v-.003.135zm-3.488-5.712v-.011a.643.643 0 0 0-.632-.643h-.091a.632.632 0 0 0-.621.632v.024-.001 1.131c0 .178.069.34.181.461a.632.632 0 0 0 .451.192c.354 0 .642-.28.654-.631v-.001zm4.582 10.159a.674.674 0 0 0 .324.371l.004.002a.624.624 0 0 0 .5-.001l-.004.002a.692.692 0 0 0 .371-.313l.002-.003c.032-.075.05-.162.05-.254s-.018-.179-.052-.258l.002.004-.361-1.129a.654.654 0 0 0-.621-.451h-.09a.642.642 0 0 0-.428.247l-.001.002a.629.629 0 0 0-.135.488v-.003.124zm-4.582-5.734a.736.736 0 0 0-.214-.474.632.632 0 0 0-.451-.192h-.09a.633.633 0 0 0-.575.656v-.001 1.129c0 .358.287.648.643.655h.001a.655.655 0 0 0 .655-.643V27z"/></symbol><symbol id="icon-cart" viewBox="0 0 33 32"><path fill="var(--color2, #528c83)" d="M26.649 24.582a3.71 3.71 0 1 0 3.709 3.709v-.011.001a3.708 3.708 0 0 0-3.709-3.698zm0 5.297h-.033a1.6 1.6 0 0 1-1.599-1.599 1.588 1.588 0 1 1 1.588 1.588h-.011.001zM8.43 22.374a3.39 3.39 0 0 0 2.261.859h19.427v-2.175H10.692a1.294 1.294 0 1 1 0-2.588h19.22l3.263-13.368H7.342L6.113.001H0v2.175h4.427L8.125 17.6a3.385 3.385 0 0 0-.835 2.233c0 1.009.439 1.915 1.136 2.539l.003.003zM7.853 7.277h22.602l-2.175 9.104H10.028zm2.872 17.305a3.708 3.708 0 1 0 3.72 3.709v-.011.001a3.708 3.708 0 0 0-3.709-3.698h-.011.001zm0 5.286a1.577 1.577 0 1 1 1.588-1.588v.012c0 .871-.706 1.577-1.577 1.577h-.011.001z"/></symbol><symbol id="icon-bide" viewBox="0 0 37 32"><path d="M34.452 10.693h.791a1.938 1.938 0 0 0 1.925-1.938V7.674a1.78 1.78 0 0 0-1.764-2.018l-.045.001h.002-25.46l-.883-1.49a.7.7 0 0 0-.623-.383h-.024.001-3.718V3.56c.25-1.437 1.213-2.044 3.257-2.044h3.059a.765.765 0 0 0 .765-.751V.764a.765.765 0 0 0-.765-.765H7.911c-2.98 0-4.536 1.173-4.786 3.599v.185H.765A.765.765 0 0 0 0 4.534v2.967a3.164 3.164 0 0 0 3.151 3.151h.976v.132c1.182 3.135 2.052 6.78 2.449 10.566l.016.193a16.728 16.728 0 0 1-1.055 4.135l.04-.113v.132h-.646a.872.872 0 0 0-.736.496l-.002.005-1.899 4.72a.755.755 0 0 0 .067.728l-.002-.003c.136.205.36.342.618.356h24.908a.777.777 0 0 0 .592-.276l.001-.001a.72.72 0 0 0 .13-.651l.001.005-1.173-4.707a.74.74 0 0 0-.724-.593h-.673l-.897-3.85.105-.079c.211-.132.422-.29.633-.435s.725-.527 1.121-.778c3.098-2.176 6.962-4.813 7.423-9.757zm-8.187 16.521l.791 3.217H4.246l1.319-3.217zm6.816-17.365c0 4.72-3.402 7.054-6.658 9.309l-.422.29c-.738.501-1.424.976-2.07 1.503a.75.75 0 0 0-.289.77l-.001-.005.936 3.956H7.146l.079-.264c.418-1.124.721-2.43.852-3.786l.005-.064c0-1.991-.831-6.012-2.637-11.946a.74.74 0 0 0-.704-.515h-.023.001H3.15a1.595 1.595 0 0 1-1.595-1.582V5.273H7.91l.883 1.49a.727.727 0 0 0 .639.382H35.36l.027-.001c.218 0 .396.177.396.396v.015-.001 1.108a.396.396 0 0 1-.396.396l-.028-.001h.001-1.516a.778.778 0 0 0-.765.778v.014-.001z"/><path d="M16.547 18.367h-.079a9.264 9.264 0 0 1-6.822-5.83l-.021-.064a.5.5 0 0 1 .274-.605l.003-.001a.514.514 0 0 1 .645.247l.001.003c.974 2.68 3.233 4.677 6.012 5.265l.053.009a.488.488 0 0 1 .422.556v-.003a.502.502 0 0 1-.487.422zm13.779-7.977H20.279a.499.499 0 0 1-.582-.494.5.5 0 0 1 .585-.494h-.003 10.047a.5.5 0 0 1 .003.988h-.003z"/></symbol><symbol id="icon-arrow_grey" viewBox="0 0 20 32"><path fill="none" stroke-miterlimit="10" stroke-width="3.902" d="M1.366 30.556L16.82 16.819 1.366 1.365"/></symbol><symbol id="icon-arrow_blue" viewBox="0 0 52 32"><path fill="none" stroke="var(--color2, #528c83)" stroke-miterlimit="10" stroke-width="6.349" d="M2.349 2.222l22.349 25.143L49.777 2.222"/></symbol><symbol id="icon-accessuari" viewBox="0 0 41 32"><path d="M40.554 5.579c-.092-.314-.377-.54-.715-.54s-.623.226-.714.534l-.001.005v1.574h-3.991V3.526c0-.949-.389-1.808-1.015-2.425a3.58 3.58 0 0 0-2.071-1L32.03.099H10.716a4.763 4.763 0 0 0-4.763 4.748v2.304h-4.52V5.577a.744.744 0 0 0-.744-.73.73.73 0 0 0-.687.728v4.507c0 .411.333.744.744.744a.745.745 0 0 0 .687-.742V8.58h4.52v22.673c0 .411.333.744.744.744h22.244a.744.744 0 0 0 .744-.744v-8.297h4.663a.73.73 0 0 0 .73-.73V8.579h3.934v1.431c.092.314.377.54.715.54s.623-.226.714-.534l.001-.005zM28.195 30.512H7.439v-3.533h20.756zm.515-28.767v.186c-.082.139-.154.3-.21.469l-.005.018v.072l-.072.215a3.719 3.719 0 0 0-.114.854v21.933H7.438V4.85a3.276 3.276 0 0 1 3.276-3.276H28.81zm4.949 19.712h-3.977V8.583h3.977zm0-14.305h-3.977V3.561c0-1.098.89-1.988 1.988-1.988h.215c.467.056.877.264 1.187.572.362.356.587.851.587 1.398v.034-.002z"/></symbol></defs></svg>